<?xml version="1.0" standalone="no"?>
<!DOCTYPE svg PUBLIC "-//W3C//DTD SVG 1.1//EN" "http://www.w3.org/Graphics/SVG/1.1/DTD/svg11.dtd" >
<svg xmlns="http://www.w3.org/2000/svg">
<metadata>Generated by IcoMoon</metadata>
<defs>
<font id="icomoon" horiz-adv-x="1024">
<font-face units-per-em="1024" ascent="960" descent="-64" />
<missing-glyph horiz-adv-x="1024" />
<glyph unicode="&#x20;" horiz-adv-x="512" d="" />
<glyph unicode="&#xe900;" d="M853.333 917.333h-682.667c-70.72 0-128-57.28-128-128v-682.667c0-70.72 57.28-128 128-128h682.667c70.72 0 128 57.28 128 128v682.667c0 70.72-57.28 128-128 128z" />
<glyph unicode="&#xe901;" d="M652.501 583.776l-181.024-181.035-90.507 90.507c-16.661 16.661-43.68 16.661-60.341 0s-16.661-43.68 0-60.331l120.651-120.672c16.672-16.661 43.691-16.661 60.352 0l211.189 211.189c16.672 16.64 16.672 43.659 0.021 60.331-16.661 16.672-43.68 16.672-60.341 0.011z" />
<glyph unicode="&#xe902;" glyph-name="upload" d="M85.333 234.667v597.333c0 70.699 57.301 128 128 128h597.333c70.699 0 128-57.301 128-128v-597.333c0-70.699-57.301-128-128-128h-170.667v85.333h170.667c23.563 0 42.667 19.104 42.667 42.667v597.333c0 23.563-19.104 42.667-42.667 42.667h-597.333c-23.563 0-42.667-19.104-42.667-42.667v-597.333c0-23.563 19.104-42.667 42.667-42.667h170.667v-85.333h-170.667c-70.688 0-128 57.301-128 128zM311.168 460.501c16.661-16.661 43.68-16.661 60.331 0l97.835 97.824v-579.659c0-23.563 19.104-42.667 42.667-42.667s42.667 19.104 42.667 42.667v579.659l97.835-97.824c16.661-16.661 43.68-16.661 60.331 0 16.661 16.661 16.661 43.68 0 60.331l-170.667 170.667c-8 8-18.848 12.501-30.165 12.501s-22.165-4.501-30.165-12.501l-170.667-170.667c-16.672-16.651-16.672-43.68 0-60.331z" />
<glyph unicode="&#xe903;" glyph-name="eye" d="M512 832c-341.333 0-512-385.771-512-385.771s170.667-382.229 512-382.229 512 384 512 384-170.667 384-512 384zM512 149.333c-225.557 0-367.968 212.075-415.968 297.088 47.968 85.824 190.411 300.245 415.968 300.245 225.6 0 368.021-213.312 415.979-298.667-48.043-85.504-190.432-298.667-415.979-298.667zM512 618.667c-94.251 0-170.667-76.416-170.667-170.667 0-94.261 76.416-170.667 170.667-170.667 94.261 0 170.667 76.405 170.667 170.667 0 94.251-76.405 170.667-170.667 170.667zM512 362.667c-47.051 0-85.333 38.283-85.333 85.333s38.283 85.333 85.333 85.333 85.333-38.283 85.333-85.333-38.283-85.333-85.333-85.333z" />
<glyph unicode="&#xe904;" glyph-name="toggle" d="M682.667 789.333h-341.333c-188.48 0-341.333-152.853-341.333-341.333s152.853-341.333 341.333-341.333h341.333c188.48 0 341.333 152.853 341.333 341.333s-152.853 341.333-341.333 341.333zM682.667 192h-341.333c-141.387 0-256 114.613-256 256s114.613 256 256 256h341.333c141.387 0 256-114.613 256-256s-114.613-256-256-256zM341.333 618.667c-94.251 0-170.667-76.416-170.667-170.667s76.416-170.667 170.667-170.667 170.667 76.416 170.667 170.667-76.416 170.667-170.667 170.667zM341.333 362.667c-47.125 0-85.333 38.208-85.333 85.333s38.208 85.333 85.333 85.333 85.333-38.208 85.333-85.333-38.208-85.333-85.333-85.333z" />
<glyph unicode="&#xe905;" glyph-name="ribbon" d="M725.333 832c23.531 0 42.667-19.136 42.667-42.667v-640l-256 192-256-192v640c0 23.531 19.136 42.667 42.667 42.667h426.667zM725.333 917.333h-426.667c-70.72 0-128-57.28-128-128v-810.667l341.333 256 341.333-256v810.667c0 70.72-57.28 128-128 128v0z" />
<glyph unicode="&#xe906;" glyph-name="moon" d="M427.989 778.88c-0.875-10.656-1.323-21.397-1.323-32.213 0-211.755 172.245-384 384-384 10.816 0 21.557 0.437 32.213 1.323-37.536-147.723-171.648-257.323-330.88-257.323-188.213 0-341.333 153.12-341.333 341.333 0 159.232 109.6 293.344 257.323 330.88zM512 874.667c-235.637 0-426.667-191.029-426.667-426.667 0-235.648 191.029-426.667 426.667-426.667 235.648 0 426.667 191.019 426.667 426.667 0 9.525-0.427 18.933-1.045 28.309-38.528-18.123-81.547-28.309-126.955-28.309-164.949 0-298.667 133.717-298.667 298.667 0 45.408 10.187 88.427 28.309 126.955-9.376 0.619-18.784 1.045-28.309 1.045v0z" />
<glyph unicode="&#xe907;" glyph-name="cloud" d="M640 832.011c-167.179 0-309.312-106.88-362.048-256h-21.952c-141.376 0-256-114.613-256-256.011 0-141.387 114.624-256.011 256.011-256.011 0.277 0 0.544 0.021 0.821 0.021h383.168c212.075 0 384 171.925 384 384s-171.925 384-384 384zM640 149.344h-384c-94.251 0-170.667 76.405-170.667 170.667s76.416 170.667 170.667 170.667h88.512c20.715 144.704 145.056 256 295.488 256 164.949 0 298.667-133.717 298.667-298.667s-133.717-298.667-298.667-298.667z" />
<glyph unicode="&#xe908;" glyph-name="umbrella" d="M768 192c-23.563 0-42.667-19.104-42.667-42.667 0-47.125-38.208-85.333-85.333-85.333s-85.333 38.208-85.333 85.333v256h469.333c0 29.077-2.432 57.579-7.083 85.333-40.629 242.155-251.221 426.667-504.917 426.667s-464.299-184.512-504.917-426.667c-4.661-27.755-7.083-56.256-7.083-85.333h469.333v-256c0-94.261 76.405-170.667 170.667-170.667s170.667 76.405 170.667 170.667c0 23.563-19.104 42.667-42.667 42.667zM512 832c206.421 0 378.603-146.581 418.123-341.333h-836.256c39.531 194.752 211.712 341.333 418.133 341.333z" />
<glyph unicode="&#xe909;" glyph-name="flag" d="M682.667 832c-128 0-256 85.333-384 85.333s-213.333-42.667-213.333-42.667v-853.333c0-23.563 19.104-42.667 42.667-42.667s42.667 19.104 42.667 42.667v284.213c34.443 7.936 77.963 14.453 128 14.453 128 0 256-85.333 384-85.333s213.333 42.667 213.333 42.667v597.333c0 0-85.333-42.667-213.333-42.667zM810.667 337.141c-41.579-11.541-84.864-17.141-128-17.141-62.379 0-123.264 24.501-181.6 43.797-65.525 21.685-132.779 41.536-202.4 41.536-42.933 0-85.888-4.181-128-12.533v422.059c41.579 11.541 84.853 17.141 128 17.141 62.379 0 123.264-24.501 181.6-43.797 65.525-21.685 132.779-41.536 202.4-41.536 42.933 0 85.888 4.181 128 12.533v-422.059z" />
<glyph unicode="&#xe90a;" glyph-name="watch" d="M768 734.144v97.856c0 70.72-57.28 128-128 128h-256c-70.72 0-128-57.28-128-128v-97.856c-78.539-70.315-128-172.437-128-286.144s49.461-215.829 128-286.144v-97.856c0-70.72 57.28-128 128-128h256c70.72 0 128 57.28 128 128v97.856c78.539 70.315 128 172.437 128 286.144s-49.461 215.829-128 286.144zM341.333 832c0 23.573 19.093 42.667 42.667 42.667h256c23.573 0 42.667-19.093 42.667-42.667v-40.011c-51.413 25.568-109.344 40.011-170.667 40.011s-119.243-14.443-170.667-40.011v40.011zM682.667 64c0-23.573-19.093-42.667-42.667-42.667h-256c-23.573 0-42.667 19.093-42.667 42.667v40.011c51.424-25.568 109.344-40.011 170.667-40.011s119.253 14.443 170.667 40.011v-40.011zM512 149.333c-164.949 0-298.667 133.717-298.667 298.667s133.717 298.667 298.667 298.667 298.667-133.717 298.667-298.667-133.717-298.667-298.667-298.667zM597.333 320c-10.912 0-21.835 4.171-30.165 12.501l-85.333 85.333c-8 8-12.501 18.848-12.501 30.165v170.667c0 23.563 19.104 42.667 42.667 42.667s42.667-19.104 42.667-42.667v-152.992l72.832-72.843c16.661-16.661 16.661-43.68 0-60.331-8.331-8.331-19.253-12.501-30.165-12.501z" />
<glyph unicode="&#xe90b;" glyph-name="disc" d="M512 917.333c-259.2 0-469.333-210.133-469.333-469.333 0-259.211 210.133-469.333 469.333-469.333 259.211 0 469.333 210.123 469.333 469.333 0 259.2-210.123 469.333-469.333 469.333zM512 64c-212.075 0-384 171.925-384 384s171.925 384 384 384 384-171.925 384-384-171.925-384-384-384zM512 618.667c-94.251 0-170.667-76.416-170.667-170.667 0-94.261 76.416-170.667 170.667-170.667 94.261 0 170.667 76.405 170.667 170.667 0 94.251-76.405 170.667-170.667 170.667zM512 362.667c-47.125 0-85.333 38.208-85.333 85.333s38.208 85.333 85.333 85.333 85.333-38.208 85.333-85.333-38.208-85.333-85.333-85.333z" />
<glyph unicode="&#xe90c;" glyph-name="heart" d="M934.379 805.728c-99.979 99.979-262.059 99.979-362.016 0l-60.363-60.341-60.352 60.32c-99.979 99.979-262.059 99.979-362.016 0-99.979-99.968-99.979-262.048 0-362.027l422.368-422.347 422.368 422.347c99.989 99.979 99.989 262.069 0.011 362.048zM753.355 383.349l-241.355-241.355-362.016 362.016c-66.645 66.645-66.645 174.709 0 241.376 66.667 66.645 174.709 66.645 241.355 0l120.661-120.683 120.683 120.683c66.645 66.645 174.709 66.645 241.355 0 66.645-66.667 66.645-174.709 0-241.376l-120.683-120.661z" />
<glyph unicode="&#xe90d;" glyph-name="align-center" d="M128 661.333h768c23.563 0 42.667 19.104 42.667 42.667s-19.104 42.667-42.667 42.667h-768c-23.563 0-42.667-19.104-42.667-42.667s19.104-42.667 42.667-42.667zM213.333 576c-23.563 0-42.667-19.104-42.667-42.667s19.104-42.667 42.667-42.667h597.333c23.563 0 42.667 19.104 42.667 42.667s-19.104 42.667-42.667 42.667h-597.333zM896 405.333h-768c-23.563 0-42.667-19.104-42.667-42.667s19.104-42.667 42.667-42.667h768c23.563 0 42.667 19.104 42.667 42.667s-19.104 42.667-42.667 42.667zM810.667 234.667h-597.333c-23.563 0-42.667-19.104-42.667-42.667s19.104-42.667 42.667-42.667h597.333c23.563 0 42.667 19.104 42.667 42.667s-19.104 42.667-42.667 42.667z" />
<glyph unicode="&#xe90e;" glyph-name="stack" d="M853.333 917.333h-384c-70.72 0-128-57.28-128-128v-170.667h-170.667c-70.72 0-128-57.28-128-128v-384c0-70.72 57.28-128 128-128h384c70.72 0 128 57.28 128 128v170.667h170.667c70.72 0 128 57.28 128 128v384c0 70.72-57.28 128-128 128zM597.333 106.667c0-23.573-19.093-42.667-42.667-42.667h-384c-23.573 0-42.667 19.093-42.667 42.667v384c0 23.573 19.093 42.667 42.667 42.667h170.667v-128c0-70.72 57.28-128 128-128h128v-170.667zM896 405.333c0-23.573-19.093-42.667-42.667-42.667h-384c-23.573 0-42.667 19.093-42.667 42.667v384c0 23.573 19.093 42.667 42.667 42.667h384c23.573 0 42.667-19.093 42.667-42.667v-384z" />
<glyph unicode="&#xe90f;" glyph-name="circle-minus" d="M512 917.333c-259.2 0-469.333-210.123-469.333-469.333s210.133-469.333 469.333-469.333 469.333 210.123 469.333 469.333-210.133 469.333-469.333 469.333zM512 64c-212.075 0-384 171.925-384 384s171.925 384 384 384 384-171.925 384-384-171.925-384-384-384zM682.667 490.667h-341.333c-23.563 0-42.667-19.104-42.667-42.667s19.104-42.667 42.667-42.667h341.333c23.563 0 42.667 19.104 42.667 42.667s-19.104 42.667-42.667 42.667z" />
<glyph unicode="&#xe910;" glyph-name="square-minus" d="M853.333 917.333h-682.667c-70.72 0-128-57.28-128-128v-682.667c0-70.72 57.28-128 128-128h682.667c70.72 0 128 57.28 128 128v682.667c0 70.72-57.28 128-128 128zM896 106.667c0-23.573-19.093-42.667-42.667-42.667h-682.667c-23.573 0-42.667 19.093-42.667 42.667v682.667c0 23.573 19.093 42.667 42.667 42.667h682.667c23.573 0 42.667-19.093 42.667-42.667v-682.667zM682.667 490.667h-341.333c-23.563 0-42.667-19.104-42.667-42.667s19.104-42.667 42.667-42.667h341.333c23.563 0 42.667 19.104 42.667 42.667s-19.104 42.667-42.667 42.667z" />
<glyph unicode="&#xe911;" glyph-name="record" d="M512 832c-212.075 0-384-171.925-384-384s171.925-384 384-384 384 171.925 384 384-171.925 384-384 384zM512 149.333c-164.949 0-298.667 133.717-298.667 298.667s133.717 298.667 298.667 298.667 298.667-133.717 298.667-298.667-133.717-298.667-298.667-298.667z" />
<glyph unicode="&#xe912;" glyph-name="skip-back" d="M755.499 776.832c16.661-16.661 16.661-43.68 0-60.331l-268.491-268.501 268.491-268.501c16.661-16.661 16.661-43.68 0-60.331-16.661-16.661-43.68-16.661-60.331 0l-298.667 298.667c-16.661 16.661-16.661 43.68 0 60.331l298.667 298.667c8.331 8.331 19.253 12.501 30.165 12.501s21.835-4.171 30.165-12.501zM256 789.333c-23.563 0-42.667-19.104-42.667-42.667v-597.333c0-23.563 19.104-42.667 42.667-42.667s42.667 19.104 42.667 42.667v597.333c0 23.563-19.104 42.667-42.667 42.667z" />
<glyph unicode="&#xe913;" glyph-name="skip-forward" d="M225.835 119.168c-16.661 16.661-16.661 43.68 0 60.331l268.491 268.501-268.491 268.501c-16.661 16.661-16.661 43.68 0 60.331 16.661 16.661 43.68 16.661 60.331 0l298.667-298.667c16.661-16.661 16.661-43.68 0-60.331l-298.667-298.667c-8.331-8.331-19.253-12.501-30.165-12.501s-21.835 4.171-30.165 12.501zM725.333 106.667c23.563 0 42.667 19.104 42.667 42.667v597.333c0 23.563-19.104 42.667-42.667 42.667s-42.667-19.104-42.667-42.667v-597.333c0-23.563 19.104-42.667 42.667-42.667z" />
<glyph unicode="&#xe914;" glyph-name="stop" d="M768 832h-512c-70.72 0-128-57.28-128-128v-512c0-70.72 57.28-128 128-128h512c70.72 0 128 57.28 128 128v512c0 70.72-57.28 128-128 128zM810.667 192c0-23.573-19.093-42.667-42.667-42.667h-512c-23.573 0-42.667 19.093-42.667 42.667v512c0 23.573 19.093 42.667 42.667 42.667h512c23.573 0 42.667-19.093 42.667-42.667v-512z" />
<glyph unicode="&#xe915;" glyph-name="location" d="M850.699 786.709l-279.328-609.44-76.181 253.931-253.931 76.181 609.44 279.328zM1024 960l-1024-469.333 426.667-128 128-426.667 469.333 1024z" />
<glyph unicode="&#xe916;" glyph-name="head" d="M689.824 391.936c48.181 46.539 78.176 111.797 78.176 184.064v128c0 141.387-114.613 256-256 256s-256-114.613-256-256v-128c0-72.245 29.995-137.483 78.144-184.032-195.083-30.389-334.144-109.173-334.144-200.971v-84.331c0-70.72 57.28-128 128-128h768c70.72 0 128 57.28 128 128v84c0 91.787-139.072 170.816-334.176 201.269zM341.333 576v128c0 94.251 76.416 170.667 170.667 170.667 94.261 0 170.667-76.416 170.667-170.667v-128c0-94.251-76.405-170.667-170.667-170.667-94.251 0-170.667 76.416-170.667 170.667zM938.667 106.667c0-23.531-19.136-42.667-42.667-42.667h-768c-23.531 0-42.667 19.136-42.667 42.667v84.331c0 9.941 24.587 42.037 97.621 72.661 85.376 35.808 205.312 56.341 329.045 56.341 123.669 0 243.573-20.587 328.981-56.469 73.077-30.72 97.685-62.88 97.685-72.864v-84z" />
<glyph unicode="&#xe917;" glyph-name="globe" d="M530.016 917.024c-5.963 0.203-11.936 0.309-18.016 0.309s-12.053-0.107-18.016-0.309c-250.891-9.504-451.317-215.904-451.317-469.024s200.427-459.52 451.317-469.024c5.963-0.203 11.936-0.309 18.016-0.309s12.053 0.107 18.016 0.309c250.891 9.504 451.317 215.904 451.317 469.024s-200.427 459.52-451.317 469.024zM893.547 490.667h-169.707c-9.707 142.933-66.891 256.96-114.56 328.96 151.573-39.68 266.773-169.611 284.267-328.96zM512.107 808.747c41.909-54.613 114.133-168.533 126.187-318.080h-252.587c12.053 148.907 84.48 263.253 126.4 318.080zM638.293 405.333c-12.053-148.907-84.373-263.253-126.4-318.080-41.909 54.613-114.133 168.533-126.187 318.080h252.587zM414.72 819.627c-47.68-72-104.853-186.027-114.549-328.96h-169.717c17.493 159.349 132.693 289.28 284.267 328.96zM130.453 405.333h169.707c9.707-142.837 66.773-256.853 114.453-328.853-151.573 39.573-266.667 169.504-284.16 328.853zM609.387 76.48c47.68 72 104.747 186.016 114.443 328.853h169.707c-17.483-159.349-132.576-289.28-284.149-328.853z" />
<glyph unicode="&#xe918;" glyph-name="tag" d="M490.048 832l393.451-393.472c10.88-10.859 12.501-23.563 12.501-30.165 0-6.592-1.621-19.296-12.501-30.165l-301.696-301.696c-10.88-10.88-23.573-12.501-30.165-12.501-6.603 0-19.307 1.621-30.176 12.501l-393.461 393.461v362.037h362.048zM525.387 917.333h-482.72v-482.72l418.453-418.453c25.003-24.992 57.76-37.493 90.517-37.493 32.747 0 65.515 12.501 90.507 37.493l301.696 301.696c49.984 49.995 49.984 131.029 0 181.024l-418.453 418.453zM362.667 704c-58.912 0-106.667-47.765-106.667-106.667s47.755-106.667 106.667-106.667c58.901 0 106.667 47.765 106.667 106.667s-47.755 106.667-106.667 106.667zM362.667 576c-11.776 0-21.333 9.557-21.333 21.333s9.557 21.333 21.333 21.333 21.333-9.557 21.333-21.333-9.547-21.333-21.333-21.333z" />
<glyph unicode="&#xe919;" glyph-name="power" d="M512-21.333c-57.579 0-113.461 11.296-166.091 33.547-25.291 10.699-49.675 23.936-72.491 39.349-22.581 15.253-43.819 32.768-63.115 52.075-19.307 19.296-36.821 40.533-52.075 63.115-15.413 22.816-28.661 47.2-39.339 72.491-22.261 52.629-33.557 108.512-33.557 166.091s11.296 113.461 33.557 166.091c10.688 25.291 23.925 49.675 39.339 72.491 15.253 22.581 32.768 43.819 52.075 63.115 16.661 16.661 43.68 16.661 60.341 0s16.661-43.68 0-60.341c-31.36-31.349-55.979-67.861-73.173-108.501-17.781-42.059-26.805-86.752-26.805-132.853 0-46.091 9.024-90.795 26.805-132.853 17.195-40.64 41.813-77.141 73.173-108.501 31.349-31.36 67.861-55.979 108.501-73.173 42.059-17.781 86.763-26.805 132.853-26.805s90.795 9.024 132.853 26.805c40.64 17.195 77.141 41.813 108.501 73.173 31.36 31.349 55.979 67.861 73.173 108.501 17.781 42.059 26.805 86.763 26.805 132.853 0 46.101-9.024 90.795-26.805 132.853-17.195 40.64-41.813 77.141-73.173 108.512-16.661 16.661-16.661 43.68 0 60.331 16.661 16.661 43.68 16.661 60.341 0 19.307-19.296 36.821-40.533 52.075-63.115 15.413-22.816 28.651-47.2 39.339-72.491 22.261-52.629 33.557-108.512 33.557-166.091s-11.296-113.461-33.557-166.091c-10.699-25.291-23.925-49.675-39.339-72.491-15.253-22.581-32.768-43.819-52.075-63.115-19.296-19.307-40.533-36.821-63.115-52.075-22.816-15.413-47.2-28.661-72.491-39.349-52.629-22.251-108.512-33.547-166.091-33.547zM554.667 448v426.667c0 23.563-19.104 42.667-42.667 42.667s-42.667-19.104-42.667-42.667v-426.667c0-23.563 19.104-42.667 42.667-42.667s42.667 19.104 42.667 42.667z" />
<glyph unicode="&#xe91a;" glyph-name="bar-graph-2" d="M512 917.333c-70.688 0-128-57.301-128-128v-682.667c0-70.699 57.312-128 128-128s128 57.301 128 128v682.667c0 70.699-57.312 128-128 128zM554.667 106.667c0-23.563-19.104-42.667-42.667-42.667s-42.667 19.104-42.667 42.667v682.667c0 23.563 19.104 42.667 42.667 42.667s42.667-19.104 42.667-42.667v-682.667zM853.333 661.333c-70.688 0-128-57.301-128-128v-426.667c0-70.699 57.312-128 128-128s128 57.301 128 128v426.667c0 70.699-57.312 128-128 128zM896 106.667c0-23.563-19.104-42.667-42.667-42.667s-42.667 19.104-42.667 42.667v426.667c0 23.563 19.104 42.667 42.667 42.667s42.667-19.104 42.667-42.667v-426.667zM170.667 405.333c-70.688 0-128-57.301-128-128v-170.667c0-70.699 57.312-128 128-128s128 57.301 128 128v170.667c0 70.699-57.312 128-128 128zM213.333 106.667c0-23.563-19.104-42.667-42.667-42.667s-42.667 19.104-42.667 42.667v170.667c0 23.563 19.104 42.667 42.667 42.667s42.667-19.104 42.667-42.667v-170.667z" />
<glyph unicode="&#xe91b;" glyph-name="volume" d="M128 618.667c-70.72 0-128-59.061-128-129.781v-83.552c0-70.72 57.28-128 128-128h85.333l213.333-213.333v768l-213.333-213.333h-85.333zM341.323 627.659l0.011 1.675v-359.339l-92.672 92.672h-120.661c-23.531 0-42.667 19.136-42.667 42.667v83.552c0 24.096 19.541 44.448 42.667 44.448h120.661l92.661 94.325zM750.443 186.624c-7.456 0-14.997 1.952-21.856 6.048-20.224 12.096-26.827 38.283-14.731 58.507 17.397 29.109 30.848 60.373 39.957 92.928 9.408 33.6 14.176 68.523 14.176 103.787s-4.768 70.187-14.176 103.787c-9.109 32.555-22.56 63.819-39.957 92.928-12.096 20.224-5.504 46.421 14.731 58.507 20.224 12.096 46.421 5.504 58.507-14.731 21.28-35.605 37.728-73.856 48.885-113.696 11.52-41.077 17.355-83.744 17.355-126.784s-5.835-85.707-17.344-126.805c-11.157-39.84-27.605-78.091-48.885-113.696-7.989-13.365-22.144-20.779-36.661-20.779zM878.133 69.568c-8.256 0-16.619 2.4-23.968 7.392-19.477 13.259-24.523 39.797-11.264 59.285 62.656 92.064 95.765 199.829 95.765 311.659s-33.109 219.595-95.765 311.659c-13.259 19.477-8.224 46.016 11.264 59.285 19.477 13.248 46.016 8.213 59.285-11.275 72.32-106.272 110.549-230.645 110.549-359.669s-38.229-253.397-110.549-359.669c-8.267-12.128-21.675-18.667-35.317-18.667zM620.096 306.123c-5.515 0-11.115 1.077-16.512 3.339-21.728 9.131-31.936 34.133-22.805 55.861 10.987 26.155 16.555 53.941 16.555 82.581 0 28.821-5.632 56.747-16.747 83.019-9.173 21.707 0.981 46.741 22.677 55.925 21.707 9.173 46.741-0.981 55.915-22.677 15.584-36.843 23.488-75.957 23.488-116.267 0-40.064-7.808-78.965-23.221-115.637-6.859-16.32-22.688-26.144-39.349-26.144z" />
<glyph unicode="&#xe91c;" glyph-name="columns" d="M896 832h-768c-70.72 0-128-57.28-128-128v-512c0-70.72 57.28-128 128-128h768c70.72 0 128 57.28 128 128v512c0 70.72-57.28 128-128 128zM640 746.667v-597.333h-256v597.333h256zM85.333 192v512c0 23.573 19.093 42.667 42.667 42.667h170.667v-597.333h-170.667c-23.573 0-42.667 19.093-42.667 42.667zM938.667 192c0-23.573-19.093-42.667-42.667-42.667h-170.667v597.333h170.667c23.573 0 42.667-19.093 42.667-42.667v-512z" />
<glyph unicode="&#xe91d;" glyph-name="trash" d="M896 725.333h-170.667v42.667c0 70.72-57.28 128-128 128h-170.667c-70.72 0-128-57.28-128-128v-42.667h-170.667c-23.563 0-42.667-19.104-42.667-42.667s19.104-42.667 42.667-42.667h42.667v-512c0-70.72 57.28-128 128-128h426.667c70.72 0 128 57.28 128 128v512h42.667c23.563 0 42.667 19.104 42.667 42.667s-19.104 42.667-42.667 42.667zM384 768c0 23.573 19.093 42.667 42.667 42.667h170.667c23.573 0 42.667-19.093 42.667-42.667v-42.667h-256v42.667zM768 128c0-23.573-19.093-42.667-42.667-42.667h-426.667c-23.573 0-42.667 19.093-42.667 42.667v512h512v-512z" />
<glyph unicode="&#xe91e;" glyph-name="minimize" d="M426.677 874.997c-23.573 0-42.667-19.083-42.667-42.667v-195.637l-268.309 268.181c-16.747 16.651-43.893 16.651-60.544 0-16.661-16.629-16.661-43.893 0-60.544l268.171-268.32h-195.627c-23.584 0-42.667-19.093-42.667-42.667s19.083-42.667 42.667-42.667h298.667c23.563 0 42.976 19.413 42.976 42.976v298.677c0 23.584-19.093 42.667-42.667 42.667zM968.843 51.68l-268.171 268.331h195.637c23.563 0 42.667 19.093 42.667 42.667s-19.104 42.667-42.667 42.667h-298.677c-23.584 0-42.955-19.435-42.955-43.008v-298.667c0-23.573 19.093-42.667 42.667-42.667s42.667 19.093 42.667 42.667v195.637l268.32-268.171c16.725-16.661 43.872-16.661 60.512 0 16.661 16.64 16.661 43.893 0 60.544z" />
<glyph unicode="&#xe91f;" glyph-name="archive" d="M768 832h-512l-256-256v-384c0-70.72 59.296-128 130.005-128h765.995c70.72 0 128 57.28 128 128v382.667l-256 257.333zM291.328 746.667h442.912l169.195-171.531-220.768 0.864c0-85.333-76.416-170.667-170.667-170.667-94.261 0-170.667 85.333-170.667 170.667h-220.672l170.667 170.667zM938.667 192c0-23.531-19.136-42.667-42.667-42.667h-765.995c-24.224 0-44.672 19.541-44.672 42.667v298.667h183.915c36.853-97.312 134.667-170.667 241.461-170.667 106.688 0 203.776 73.216 240.704 170.4l187.253-0.736v-297.664z" />
<glyph unicode="&#xe920;" glyph-name="plus" d="M896 490.667h-341.333v341.333c0 23.563-19.104 42.667-42.667 42.667s-42.667-19.104-42.667-42.667v-341.333h-341.333c-23.563 0-42.667-19.104-42.667-42.667s19.104-42.667 42.667-42.667h341.333v-341.333c0-23.563 19.104-42.667 42.667-42.667s42.667 19.104 42.667 42.667v341.333h341.333c23.563 0 42.667 19.104 42.667 42.667s-19.104 42.667-42.667 42.667z" />
<glyph unicode="&#xe921;" glyph-name="bar-graph" d="M853.333 917.333c-70.699 0-128-57.301-128-128v-682.667c0-70.699 57.301-128 128-128s128 57.301 128 128v682.667c0 70.699-57.301 128-128 128zM896 106.667c0-23.563-19.104-42.667-42.667-42.667s-42.667 19.104-42.667 42.667v682.667c0 23.563 19.104 42.667 42.667 42.667s42.667-19.104 42.667-42.667v-682.667zM512 661.333c-70.699 0-128-57.301-128-128v-426.667c0-70.699 57.301-128 128-128s128 57.301 128 128v426.667c0 70.699-57.301 128-128 128zM554.667 106.667c0-23.563-19.104-42.667-42.667-42.667s-42.667 19.104-42.667 42.667v426.667c0 23.563 19.104 42.667 42.667 42.667s42.667-19.104 42.667-42.667v-426.667zM170.667 405.333c-70.699 0-128-57.301-128-128v-170.667c0-70.699 57.301-128 128-128s128 57.301 128 128v170.667c0 70.699-57.301 128-128 128zM213.333 106.667c0-23.563-19.104-42.667-42.667-42.667s-42.667 19.104-42.667 42.667v170.667c0 23.563 19.104 42.667 42.667 42.667s42.667-19.104 42.667-42.667v-170.667z" />
<glyph unicode="&#xe922;" glyph-name="mail" d="M853.333 832h-682.667c-70.688 0-128-57.312-128-128v-512c0-70.688 57.312-128 128-128h682.667c70.688 0 128 57.312 128 128v512c0 70.688-57.312 128-128 128zM853.333 746.667c4.928 0 9.664-0.832 14.059-2.379l-355.392-284.32-355.392 284.32c4.395 1.547 9.131 2.379 14.059 2.379h682.667zM853.333 149.333h-682.667c-23.563 0-42.667 19.104-42.667 42.667v465.899l357.344-285.877c7.787-6.24 17.216-9.355 26.656-9.355s18.869 3.115 26.656 9.355l357.344 285.877v-465.899c0-23.563-19.104-42.667-42.667-42.667z" />
<glyph unicode="&#xe923;" glyph-name="bell" d="M1024 149.333c-85.333 85.333-128 213.333-170.667 426.667-36.971 184.821-152.853 341.333-341.333 341.333s-304.373-156.512-341.333-341.333c-42.667-213.333-85.333-341.333-170.667-426.667h391.435c-4.725-13.365-7.435-27.691-7.435-42.667 0-70.688 57.312-128 128-128s128 57.312 128 128c0 14.976-2.709 29.301-7.435 42.667h391.435zM254.347 559.275c12.789 63.979 69.195 272.725 257.653 272.725s244.864-208.757 257.653-272.725c26.443-132.256 53.653-238.325 94.112-324.608h-703.541c40.459 86.283 67.669 192.352 94.123 324.608zM554.667 106.667c0-23.531-19.136-42.667-42.667-42.667s-42.667 19.136-42.667 42.667 19.136 42.667 42.667 42.667 42.667-19.136 42.667-42.667z" />
<glyph unicode="&#xe924;" glyph-name="link" d="M597.333 192c6.955 0 13.856 0.213 20.704 0.629-3.317-3.733-6.773-7.392-10.357-10.976l-128-128c-99.979-99.979-262.069-99.979-362.037 0-99.979 99.979-99.979 262.059 0 362.037l128 128c3.584 3.573 7.243 7.029 10.965 10.357 78.464 69.845 189.589 83.072 280.427 39.691 25.547-12.213 49.504-28.885 70.645-50.037 21.163-21.152 37.835-45.109 50.037-70.645-15.424-15.477-36.8-25.056-60.384-25.056-8.704 0-17.12 1.301-25.045 3.733-6.891 11.253-15.211 21.877-24.939 31.616-9.749 9.739-20.373 18.048-31.616 24.949-65.728 40.277-152.832 31.968-209.749-24.949l-128-128c-66.645-66.645-66.645-174.709 0-241.376 66.656-66.645 174.72-66.645 241.365 0l89.568 89.579c28.203-7.531 57.856-11.552 88.416-11.552zM906.357 842.357c-99.979 99.968-262.059 99.968-362.037 0l-128-128c-3.584-3.584-7.029-7.243-10.357-10.976 6.859 0.416 13.749 0.619 20.704 0.619 30.571 0 60.213-4.021 88.405-11.563l89.568 89.568c66.667 66.656 174.731 66.656 241.376 0 66.645-66.645 66.645-174.709 0-241.365l-128-128c-56.917-56.896-144.021-65.205-209.76-24.939-11.253 6.891-21.867 15.211-31.616 24.939-9.739 9.749-18.048 20.373-24.939 31.616-7.904 2.432-16.32 3.744-25.035 3.744-23.595 0-44.949-9.568-60.395-25.045 12.213-25.547 28.885-49.483 50.037-70.645 21.152-21.141 45.099-37.835 70.635-50.037 90.837-43.392 201.963-30.165 280.427 39.691 3.755 3.328 7.392 6.773 10.976 10.357l128 128c99.989 99.979 99.989 262.059 0.011 362.037z" />
<glyph unicode="&#xe925;" glyph-name="sun" d="M554.667 917.333v-85.333c0-23.563-19.104-42.667-42.667-42.667s-42.667 19.104-42.667 42.667v85.333c0 23.563 19.104 42.667 42.667 42.667s42.667-19.104 42.667-42.667zM512 106.667c-23.563 0-42.667-19.104-42.667-42.667v-85.333c0-23.563 19.104-42.667 42.667-42.667s42.667 19.104 42.667 42.667v85.333c0 23.563-19.104 42.667-42.667 42.667zM149.963 810.037c-16.661-16.661-16.661-43.68 0-60.341l60.341-60.341c16.661-16.661 43.68-16.661 60.341 0s16.661 43.691 0 60.341l-60.341 60.341c-16.672 16.661-43.68 16.661-60.341 0zM753.355 206.645c-16.661-16.661-16.661-43.691 0-60.341l60.341-60.341c16.661-16.661 43.68-16.661 60.341 0s16.661 43.68 0 60.341l-60.341 60.341c-16.661 16.661-43.68 16.661-60.341 0zM0 448c0-23.563 19.104-42.667 42.667-42.667h85.333c23.563 0 42.667 19.104 42.667 42.667s-19.104 42.667-42.667 42.667h-85.333c-23.563 0-42.667-19.104-42.667-42.667zM853.333 448c0-23.563 19.104-42.667 42.667-42.667h85.333c23.563 0 42.667 19.104 42.667 42.667s-19.104 42.667-42.667 42.667h-85.333c-23.563 0-42.667-19.104-42.667-42.667zM149.963 85.963c16.661-16.661 43.68-16.661 60.341 0l60.331 60.341c16.661 16.661 16.661 43.68 0 60.341s-43.669 16.661-60.331 0l-60.341-60.341c-16.661-16.672-16.661-43.68 0-60.341zM753.355 689.355c16.661-16.661 43.68-16.661 60.341 0l60.341 60.341c16.661 16.661 16.661 43.68 0 60.341s-43.68 16.661-60.341 0l-60.341-60.341c-16.661-16.651-16.661-43.68 0-60.341zM768 448c0-141.387-114.613-256-256-256s-256 114.613-256 256 114.613 256 256 256 256-114.613 256-256zM682.667 448c0 94.261-76.405 170.667-170.667 170.667s-170.667-76.405-170.667-170.667 76.405-170.667 170.667-170.667 170.667 76.405 170.667 170.667z" />
<glyph unicode="&#xe926;" glyph-name="shuffle" d="M566.933 606.475c-34.4-43.584-54.933-98.635-54.933-158.475 0-60-15.477-116.373-42.667-165.376-14.955-26.955-33.461-51.691-54.891-73.547-61.941-63.189-148.288-102.411-243.776-102.411h-85.333c-23.563 0-42.667 19.104-42.667 42.667s19.104 42.667 42.667 42.667h85.333c81.547 0 154.187 38.123 201.067 97.525 34.4 43.584 54.933 98.635 54.933 158.475 0 60 15.477 116.373 42.667 165.376 14.955 26.955 33.461 51.691 54.891 73.547 61.941 63.189 148.288 102.411 243.776 102.411h67.659l-97.824 97.835c-16.661 16.661-16.661 43.68 0 60.331 16.661 16.661 43.68 16.661 60.331 0l170.667-170.667c16.661-16.661 16.661-43.68 0-60.331l-170.667-170.667c-8.331-8.331-19.253-12.501-30.165-12.501s-21.835 4.171-30.165 12.501c-16.661 16.661-16.661 43.68 0 60.331l97.824 97.835h-67.659c-81.547 0-154.187-38.123-201.067-97.525zM85.333 704h85.333c81.547 0 154.187-38.123 201.067-97.525 11.392 28.448 25.76 55.392 42.72 80.437-61.952 63.2-148.299 102.421-243.787 102.421h-85.333c-23.563 0-42.667-19.104-42.667-42.667s19.104-42.667 42.667-42.667zM798.165 350.165c-16.661 16.661-43.68 16.661-60.331 0-16.661-16.661-16.661-43.68 0-60.331l97.824-97.835h-67.659c-81.547 0-154.187 38.123-201.067 97.525-11.392-28.448-25.76-55.392-42.72-80.437 61.952-63.2 148.299-102.421 243.787-102.421h67.659l-97.824-97.835c-16.661-16.661-16.661-43.68 0-60.331 8.331-8.331 19.253-12.501 30.165-12.501s21.835 4.171 30.165 12.501l170.667 170.667c16.661 16.661 16.661 43.68 0 60.331l-170.667 170.667z" />
<glyph unicode="&#xe927;" glyph-name="ellipsis" d="M170.667 576c-70.688 0-128-57.312-128-128s57.312-128 128-128 128 57.312 128 128-57.312 128-128 128zM170.667 405.333c-23.563 0-42.667 19.104-42.667 42.667s19.104 42.667 42.667 42.667 42.667-19.104 42.667-42.667-19.104-42.667-42.667-42.667zM512 576c-70.688 0-128-57.312-128-128s57.312-128 128-128 128 57.312 128 128-57.312 128-128 128zM512 405.333c-23.563 0-42.667 19.104-42.667 42.667s19.104 42.667 42.667 42.667 42.667-19.104 42.667-42.667-19.104-42.667-42.667-42.667zM853.333 576c-70.688 0-128-57.312-128-128s57.312-128 128-128 128 57.312 128 128-57.312 128-128 128zM853.333 405.333c-23.563 0-42.667 19.104-42.667 42.667s19.104 42.667 42.667 42.667 42.667-19.104 42.667-42.667-19.104-42.667-42.667-42.667z" />
<glyph unicode="&#xe928;" glyph-name="clipboard" d="M768 832h-50.101c-17.611 49.685-64.853 85.333-120.565 85.333h-170.667c-55.712 0-102.955-35.648-120.565-85.333h-50.101c-70.72 0-128-57.28-128-128v-597.333c0-70.72 57.28-128 128-128h512c70.72 0 128 57.28 128 128v597.333c0 70.72-57.28 128-128 128zM426.667 832h170.667c23.563 0 42.667-19.104 42.667-42.667s-19.104-42.667-42.667-42.667h-170.667c-23.563 0-42.667 19.104-42.667 42.667s19.104 42.667 42.667 42.667zM810.667 106.667c0-23.573-19.093-42.667-42.667-42.667h-512c-23.573 0-42.667 19.093-42.667 42.667v597.333c0 23.573 19.093 42.667 42.667 42.667h50.101c17.579-49.685 64.853-85.333 120.565-85.333h170.667c55.712 0 102.955 35.648 120.565 85.333h50.101c23.573 0 42.667-19.093 42.667-42.667v-597.333z" />
<glyph unicode="&#xe929;" glyph-name="video" d="M725.333 541.099v77.568c0 70.72-57.28 128-128 128h-469.333c-70.72 0-128-57.28-128-128v-341.333c0-70.72 57.28-128 128-128h469.333c70.72 0 128 57.28 128 128v77.568l298.667-162.901v512l-298.667-162.901zM640 277.333c0-23.573-19.093-42.667-42.667-42.667h-469.333c-23.573 0-42.667 19.093-42.667 42.667v341.333c0 23.573 19.093 42.667 42.667 42.667h469.333c23.573 0 42.667-19.093 42.667-42.667v-341.333zM938.667 335.755l-205.792 112.245 205.792 112.245v-224.491z" />
<glyph unicode="&#xe92a;" glyph-name="server" d="M512 917.333c-226.037 0-469.333-53.408-469.333-170.667v-597.333c0-117.259 243.296-170.667 469.333-170.667s469.333 53.408 469.333 170.667v597.333c0 117.259-243.296 170.667-469.333 170.667zM512 832c247.349 0 375.253-61.184 383.851-85.333-8.597-24.149-136.501-85.333-383.851-85.333s-375.253 61.184-383.861 85.333c8.608 24.149 136.512 85.333 383.861 85.333zM128 642.955c90.805-45.504 240.821-66.955 384-66.955 143.189 0 293.205 21.472 384.011 66.976l0.021-194.443c-6.763-23.712-134.709-85.877-384.032-85.877-249.6 0-377.557 62.304-384 85.333v194.965zM512 64c-249.6 0-377.557 62.304-384 85.333v194.955c90.805-45.504 240.821-66.955 384-66.955 143.211 0 293.248 21.472 384.043 66.997l0.021-194.379c-6.507-23.648-134.464-85.952-384.064-85.952z" />
<glyph unicode="&#xe92b;" glyph-name="align-left" d="M128 661.333h768c23.563 0 42.667 19.104 42.667 42.667s-19.104 42.667-42.667 42.667h-768c-23.563 0-42.667-19.104-42.667-42.667s19.104-42.667 42.667-42.667zM128 490.667h597.333c23.563 0 42.667 19.104 42.667 42.667s-19.104 42.667-42.667 42.667h-597.333c-23.563 0-42.667-19.104-42.667-42.667s19.104-42.667 42.667-42.667zM896 405.333h-768c-23.563 0-42.667-19.104-42.667-42.667s19.104-42.667 42.667-42.667h768c23.563 0 42.667 19.104 42.667 42.667s-19.104 42.667-42.667 42.667zM725.333 234.667h-597.333c-23.563 0-42.667-19.104-42.667-42.667s19.104-42.667 42.667-42.667h597.333c23.563 0 42.667 19.104 42.667 42.667s-19.104 42.667-42.667 42.667z" />
<glyph unicode="&#xe92c;" glyph-name="layers" d="M512 138.496l-416 208-96-48 512-256 512 256-96 48-416-208zM512 319.669l-416 208-96-48 512-256 512 256-96 48-416-208zM1024 661.333l-512 256-512-256 512-256 512 256zM512 821.941l321.184-160.608-321.184-160.608-321.184 160.608 321.184 160.608z" />
<glyph unicode="&#xe92d;" glyph-name="paper-stack" d="M597.333 21.333h-384c-23.573 0-42.667 19.093-42.667 42.667v717.888c-49.685-17.6-85.333-64.853-85.333-120.565v-597.333c0-70.688 57.312-128 128-128h426.667c55.712 0 102.955 35.659 120.565 85.333h-163.232zM810.667 960h-426.667c-70.688 0-128-57.323-128-128v-597.333c0-70.699 57.312-128.011 128-128.011h426.667c70.688 0 128 57.312 128 128.011v597.333c0 70.677-57.312 128-128 128zM853.333 234.667c0-23.584-19.093-42.677-42.667-42.677h-426.667c-23.563 0-42.667 19.093-42.667 42.677v597.333c0 23.573 19.104 42.667 42.667 42.667h426.667c23.573 0 42.667-19.093 42.667-42.667v-597.333z" />
<glyph unicode="&#xe92e;" glyph-name="circle-add" d="M512 917.333c-259.2 0-469.333-210.123-469.333-469.333s210.133-469.333 469.333-469.333 469.333 210.123 469.333 469.333-210.133 469.333-469.333 469.333zM512 64c-212.075 0-384 171.925-384 384s171.925 384 384 384 384-171.925 384-384-171.925-384-384-384zM682.667 490.667h-128v128c0 23.563-19.104 42.667-42.667 42.667s-42.667-19.104-42.667-42.667v-128h-128c-23.563 0-42.667-19.104-42.667-42.667s19.104-42.667 42.667-42.667h128v-128c0-23.563 19.104-42.667 42.667-42.667s42.667 19.104 42.667 42.667v128h128c23.563 0 42.667 19.104 42.667 42.667s-19.104 42.667-42.667 42.667z" />
<glyph unicode="&#xe92f;" glyph-name="square-add" d="M853.333 917.333h-682.667c-70.72 0-128-57.28-128-128v-682.667c0-70.72 57.28-128 128-128h682.667c70.72 0 128 57.28 128 128v682.667c0 70.72-57.28 128-128 128zM896 106.667c0-23.573-19.093-42.667-42.667-42.667h-682.667c-23.573 0-42.667 19.093-42.667 42.667v682.667c0 23.573 19.093 42.667 42.667 42.667h682.667c23.573 0 42.667-19.093 42.667-42.667v-682.667zM682.667 490.667h-128v128c0 23.563-19.104 42.667-42.667 42.667s-42.667-19.104-42.667-42.667v-128h-128c-23.563 0-42.667-19.104-42.667-42.667s19.104-42.667 42.667-42.667h128v-128c0-23.563 19.104-42.667 42.667-42.667s42.667 19.104 42.667 42.667v128h128c23.563 0 42.667 19.104 42.667 42.667s-19.104 42.667-42.667 42.667z" />
<glyph unicode="&#xe930;" glyph-name="microphone" d="M853.333 533.333v-85.333c0-174.059-130.293-317.685-298.667-338.688v-87.979h128c23.563 0 42.667-19.104 42.667-42.667s-19.104-42.667-42.667-42.667h-341.333c-23.563 0-42.667 19.104-42.667 42.667s19.104 42.667 42.667 42.667h128v87.979c-168.373 21.003-298.667 164.629-298.667 338.688v85.333c0 23.563 19.104 42.667 42.667 42.667s42.667-19.104 42.667-42.667v-85.333c0-141.387 114.613-256 256-256s256 114.613 256 256v85.333c0 23.563 19.104 42.667 42.667 42.667s42.667-19.104 42.667-42.667zM512 960c-94.261 0-170.667-76.405-170.667-170.667v-341.333c0-94.261 76.405-170.667 170.667-170.667s170.667 76.405 170.667 170.667v341.333c0 94.261-76.405 170.667-170.667 170.667zM512 362.667c-47.125 0-85.333 38.208-85.333 85.333v341.333c0 47.125 38.208 85.333 85.333 85.333s85.333-38.208 85.333-85.333v-341.333c0-47.125-38.208-85.333-85.333-85.333z" />
<glyph unicode="&#xe931;" glyph-name="pause" d="M341.333 832c-70.688 0-128-57.312-128-128v-512c0-70.688 57.312-128 128-128s128 57.312 128 128v512c0 70.688-57.312 128-128 128zM384 192c0-23.563-19.104-42.667-42.667-42.667s-42.667 19.104-42.667 42.667v512c0 23.563 19.104 42.667 42.667 42.667s42.667-19.104 42.667-42.667v-512zM682.667 832c-70.688 0-128-57.312-128-128v-512c0-70.688 57.312-128 128-128s128 57.312 128 128v512c0 70.688-57.312 128-128 128zM725.333 192c0-23.563-19.104-42.667-42.667-42.667s-42.667 19.104-42.667 42.667v512c0 23.563 19.104 42.667 42.667 42.667s42.667-19.104 42.667-42.667v-512z" />
<glyph unicode="&#xe932;" glyph-name="download" d="M938.667 661.333v-597.333c0-70.699-57.301-128-128-128h-597.333c-70.699 0-128 57.301-128 128v597.333c0 70.699 57.301 128 128 128h170.667v-85.333h-170.667c-23.563 0-42.667-19.104-42.667-42.667v-597.333c0-23.563 19.104-42.667 42.667-42.667h597.333c23.563 0 42.667 19.104 42.667 42.667v597.333c0 23.563-19.104 42.667-42.667 42.667h-170.667v85.333h170.667c70.699 0 128-57.301 128-128zM712.832 478.165c-16.661 16.661-43.68 16.661-60.331 0l-97.835-97.824v536.992c0 23.563-19.104 42.667-42.667 42.667s-42.667-19.104-42.667-42.667v-536.992l-97.835 97.824c-16.661 16.661-43.68 16.661-60.331 0-16.661-16.661-16.661-43.68 0-60.331l170.667-170.667c8-8 18.848-12.501 30.165-12.501s22.165 4.501 30.165 12.501l170.667 170.667c16.672 16.651 16.672 43.68 0 60.331z" />
<glyph unicode="&#xe933;" glyph-name="battery" d="M896 618.667c0 70.72-57.28 128-128 128h-640c-70.72 0-128-57.28-128-128v-341.333c0-70.72 57.28-128 128-128h640c70.72 0 128 57.28 128 128 70.72 0 128 57.28 128 128v85.333c0 70.72-57.28 128-128 128zM810.667 277.333c0-23.573-19.093-42.667-42.667-42.667h-640c-23.573 0-42.667 19.093-42.667 42.667v341.333c0 23.573 19.093 42.667 42.667 42.667h640c23.573 0 42.667-19.093 42.667-42.667v-341.333zM938.667 405.333c0-23.573-19.093-42.667-42.667-42.667v170.667c23.573 0 42.667-19.093 42.667-42.667v-85.333z" />
<glyph unicode="&#xe934;" glyph-name="box" d="M512 960l-469.333-213.333v-597.333l469.333-213.333 469.333 213.333v597.333l-469.333 213.333zM512 866.24l314.667-143.040-314.667-143.029-314.773 143.029 314.773 143.040zM128 204.267v456.747l341.333-155.093v-456.747l-341.333 155.093zM896 204.267l-341.333-155.104v456.757l341.333 155.104v-456.757z" />
<glyph unicode="&#xe935;" glyph-name="marquee" d="M298.667 874.667c0-23.573-19.093-42.667-42.667-42.667h-85.333c-23.573 0-42.667-19.093-42.667-42.667v-85.333c0-23.573-19.093-42.667-42.667-42.667s-42.667 19.093-42.667 42.667v85.333c0 70.72 57.28 128 128 128h85.333c23.573 0 42.667-19.093 42.667-42.667zM128 533.333v-170.667c0-23.573-19.093-42.667-42.667-42.667s-42.667 19.093-42.667 42.667v170.667c0 23.573 19.093 42.667 42.667 42.667s42.667-19.093 42.667-42.667zM298.667 21.333c0-23.573-19.093-42.667-42.667-42.667h-85.333c-70.72 0-128 57.28-128 128v85.333c0 23.573 19.093 42.667 42.667 42.667s42.667-19.093 42.667-42.667v-85.333c0-23.573 19.093-42.667 42.667-42.667h85.333c23.573 0 42.667-19.093 42.667-42.667zM640 21.333c0-23.573-19.093-42.667-42.667-42.667h-170.667c-23.573 0-42.667 19.093-42.667 42.667s19.093 42.667 42.667 42.667h170.667c23.573 0 42.667-19.093 42.667-42.667zM981.333 192v-85.333c0-70.72-57.28-128-128-128h-85.333c-23.573 0-42.667 19.093-42.667 42.667s19.093 42.667 42.667 42.667h85.333c23.573 0 42.667 19.093 42.667 42.667v85.333c0 23.573 19.093 42.667 42.667 42.667s42.667-19.093 42.667-42.667zM981.333 533.333v-170.667c0-23.573-19.093-42.667-42.667-42.667s-42.667 19.093-42.667 42.667v170.667c0 23.573 19.093 42.667 42.667 42.667s42.667-19.093 42.667-42.667zM981.333 789.333v-85.333c0-23.573-19.093-42.667-42.667-42.667s-42.667 19.093-42.667 42.667v85.333c0 23.573-19.093 42.667-42.667 42.667h-85.333c-23.573 0-42.667 19.093-42.667 42.667s19.093 42.667 42.667 42.667h85.333c70.72 0 128-57.28 128-128zM640 874.667c0-23.573-19.093-42.667-42.667-42.667h-170.667c-23.573 0-42.667 19.093-42.667 42.667s19.093 42.667 42.667 42.667h170.667c23.573 0 42.667-19.093 42.667-42.667z" />
<glyph unicode="&#xe936;" glyph-name="marquee-subtract" d="M298.667 874.667c0-23.573-19.093-42.667-42.667-42.667h-85.333c-23.573 0-42.667-19.093-42.667-42.667v-85.333c0-23.573-19.093-42.667-42.667-42.667s-42.667 19.093-42.667 42.667v85.333c0 70.72 57.28 128 128 128h85.333c23.573 0 42.667-19.093 42.667-42.667zM128 533.333v-170.667c0-23.573-19.093-42.667-42.667-42.667s-42.667 19.093-42.667 42.667v170.667c0 23.573 19.093 42.667 42.667 42.667s42.667-19.093 42.667-42.667zM298.667 21.333c0-23.573-19.093-42.667-42.667-42.667h-85.333c-70.72 0-128 57.28-128 128v85.333c0 23.573 19.093 42.667 42.667 42.667s42.667-19.093 42.667-42.667v-85.333c0-23.573 19.093-42.667 42.667-42.667h85.333c23.573 0 42.667-19.093 42.667-42.667zM640 21.333c0-23.573-19.093-42.667-42.667-42.667h-170.667c-23.573 0-42.667 19.093-42.667 42.667s19.093 42.667 42.667 42.667h170.667c23.573 0 42.667-19.093 42.667-42.667zM981.333 192v-85.333c0-70.72-57.28-128-128-128h-85.333c-23.573 0-42.667 19.093-42.667 42.667s19.093 42.667 42.667 42.667h85.333c23.573 0 42.667 19.093 42.667 42.667v85.333c0 23.573 19.093 42.667 42.667 42.667s42.667-19.093 42.667-42.667zM981.333 533.333v-170.667c0-23.573-19.093-42.667-42.667-42.667s-42.667 19.093-42.667 42.667v170.667c0 23.573 19.093 42.667 42.667 42.667s42.667-19.093 42.667-42.667zM981.333 789.333v-85.333c0-23.573-19.093-42.667-42.667-42.667s-42.667 19.093-42.667 42.667v85.333c0 23.573-19.093 42.667-42.667 42.667h-85.333c-23.573 0-42.667 19.093-42.667 42.667s19.093 42.667 42.667 42.667h85.333c70.72 0 128-57.28 128-128zM640 874.667c0-23.573-19.093-42.667-42.667-42.667h-170.667c-23.573 0-42.667 19.093-42.667 42.667s19.093 42.667 42.667 42.667h170.667c23.573 0 42.667-19.093 42.667-42.667zM682.667 490.667h-341.333c-23.563 0-42.667-19.104-42.667-42.667s19.104-42.667 42.667-42.667h341.333c23.563 0 42.667 19.104 42.667 42.667s-19.104 42.667-42.667 42.667z" />
<glyph unicode="&#xe937;" glyph-name="marquee-add" d="M298.667 874.667c0-23.573-19.093-42.667-42.667-42.667h-85.333c-23.573 0-42.667-19.093-42.667-42.667v-85.333c0-23.573-19.093-42.667-42.667-42.667s-42.667 19.093-42.667 42.667v85.333c0 70.72 57.28 128 128 128h85.333c23.573 0 42.667-19.093 42.667-42.667zM128 533.333v-170.667c0-23.573-19.093-42.667-42.667-42.667s-42.667 19.093-42.667 42.667v170.667c0 23.573 19.093 42.667 42.667 42.667s42.667-19.093 42.667-42.667zM298.667 21.333c0-23.573-19.093-42.667-42.667-42.667h-85.333c-70.72 0-128 57.28-128 128v85.333c0 23.573 19.093 42.667 42.667 42.667s42.667-19.093 42.667-42.667v-85.333c0-23.573 19.093-42.667 42.667-42.667h85.333c23.573 0 42.667-19.093 42.667-42.667zM640 21.333c0-23.573-19.093-42.667-42.667-42.667h-170.667c-23.573 0-42.667 19.093-42.667 42.667s19.093 42.667 42.667 42.667h170.667c23.573 0 42.667-19.093 42.667-42.667zM981.333 192v-85.333c0-70.72-57.28-128-128-128h-85.333c-23.573 0-42.667 19.093-42.667 42.667s19.093 42.667 42.667 42.667h85.333c23.573 0 42.667 19.093 42.667 42.667v85.333c0 23.573 19.093 42.667 42.667 42.667s42.667-19.093 42.667-42.667zM981.333 533.333v-170.667c0-23.573-19.093-42.667-42.667-42.667s-42.667 19.093-42.667 42.667v170.667c0 23.573 19.093 42.667 42.667 42.667s42.667-19.093 42.667-42.667zM981.333 789.333v-85.333c0-23.573-19.093-42.667-42.667-42.667s-42.667 19.093-42.667 42.667v85.333c0 23.573-19.093 42.667-42.667 42.667h-85.333c-23.573 0-42.667 19.093-42.667 42.667s19.093 42.667 42.667 42.667h85.333c70.72 0 128-57.28 128-128zM640 874.667c0-23.573-19.093-42.667-42.667-42.667h-170.667c-23.573 0-42.667 19.093-42.667 42.667s19.093 42.667 42.667 42.667h170.667c23.573 0 42.667-19.093 42.667-42.667zM682.667 490.667h-128v128c0 23.563-19.104 42.667-42.667 42.667s-42.667-19.104-42.667-42.667v-128h-128c-23.563 0-42.667-19.104-42.667-42.667s19.104-42.667 42.667-42.667h128v-128c0-23.563 19.104-42.667 42.667-42.667s42.667 19.104 42.667 42.667v128h128c23.563 0 42.667 19.104 42.667 42.667s-19.104 42.667-42.667 42.667z" />
<glyph unicode="&#xe938;" glyph-name="esc" d="M512-21.333c-59.477 0-117.461 10.987-172.331 32.661-53.003 20.928-101.312 51.072-143.616 89.6-85.984 78.325-139.627 184.928-151.072 300.181-2.325 23.445 14.795 44.341 38.251 46.677 23.445 2.336 44.341-14.795 46.667-38.24 9.355-94.251 53.259-181.451 123.616-245.536 34.624-31.541 74.155-56.213 117.504-73.323 44.843-17.707 92.288-26.688 140.981-26.688 51.851 0 102.144 10.144 149.461 30.155 22.741 9.621 44.683 21.536 65.205 35.392 20.341 13.749 39.477 29.536 56.864 46.912s33.163 36.523 46.912 56.864c13.867 20.523 25.771 42.464 35.392 65.205 20.021 47.328 30.165 97.621 30.165 149.472 0 48.693-8.981 96.139-26.699 140.992-17.109 43.339-41.781 82.869-73.323 117.504-64.085 70.357-151.285 114.261-245.536 123.616-23.445 2.325-40.576 23.221-38.24 46.667 2.336 23.456 23.221 40.576 46.677 38.251 115.264-11.445 221.867-65.109 300.181-151.072 38.528-42.304 68.672-90.613 89.6-143.616 21.685-54.88 32.672-112.864 32.672-172.341 0-63.339-12.416-124.811-36.896-182.699-11.776-27.819-26.336-54.645-43.285-79.744-16.779-24.843-36.064-48.213-57.291-69.429-21.216-21.227-44.587-40.512-69.429-57.291-25.099-16.949-51.915-31.509-79.744-43.285-57.877-24.469-119.349-36.885-182.688-36.885zM542.165 478.165l-353.824 353.835h152.992c23.563 0 42.667 19.104 42.667 42.667s-19.104 42.667-42.667 42.667h-256c-23.563 0-42.667-19.104-42.667-42.667v-256c0-23.563 19.104-42.667 42.667-42.667s42.667 19.104 42.667 42.667v152.992l353.835-353.824c8.331-8.331 19.253-12.501 30.165-12.501s21.835 4.171 30.165 12.501c16.672 16.651 16.672 43.68 0 60.331z" />
<glyph unicode="&#xe939;" glyph-name="arrow-left" d="M895.989 490.677h-664.992l225.835 225.835c16.661 16.661 16.651 43.669 0 60.341-16.661 16.661-43.669 16.661-60.341 0l-298.667-298.667c-16.661-16.661-16.661-43.68-0.011-60.331l298.667-298.667c8.331-8.331 19.253-12.501 30.176-12.501 10.912 0 21.835 4.171 30.176 12.512 16.661 16.651 16.651 43.669 0 60.32l-225.845 225.824h665.003c23.563 0 42.677 19.115 42.667 42.667 0 23.563-19.104 42.667-42.667 42.667z" />
<glyph unicode="&#xe93a;" glyph-name="arrow-right" d="M128 405.333h665.003l-225.835-225.835c-16.661-16.661-16.661-43.669 0-60.331s43.68-16.661 60.341 0l298.667 298.667c16.661 16.661 16.661 43.68 0 60.331l-298.667 298.667c-8.331 8.331-19.253 12.501-30.176 12.501-10.912 0-21.835-4.171-30.165-12.501-16.661-16.661-16.661-43.68 0-60.331l225.835-225.835h-665.003c-23.563 0-42.667-19.104-42.667-42.667s19.104-42.667 42.667-42.667z" />
<glyph unicode="&#xe93b;" glyph-name="arrow-up" d="M554.667 64.011v665.003l225.835-225.835c16.661-16.661 43.669-16.661 60.331 0s16.661 43.68 0 60.341l-298.667 298.667c-16.661 16.661-43.68 16.661-60.331 0l-298.667-298.667c-8.331-8.331-12.501-19.243-12.501-30.176 0-10.912 4.171-21.835 12.501-30.165 16.661-16.661 43.68-16.661 60.331 0l225.835 225.835v-665.003c0-23.563 19.104-42.667 42.667-42.667s42.667 19.104 42.667 42.667z" />
<glyph unicode="&#xe93c;" glyph-name="arrow-down" d="M469.333 832v-665.003l-225.835 225.835c-16.661 16.661-43.669 16.661-60.331 0s-16.661-43.68 0-60.341l298.667-298.667c16.661-16.661 43.68-16.661 60.331 0l298.667 298.667c8.331 8.331 12.501 19.253 12.501 30.176 0 10.912-4.171 21.835-12.501 30.165-16.661 16.661-43.68 16.661-60.331 0l-225.835-225.835v665.003c0 23.552-19.104 42.667-42.667 42.667s-42.667-19.104-42.667-42.667z" />
<glyph unicode="&#xe93d;" glyph-name="grid-2" d="M853.333 917.333h-682.667c-70.72 0-128-57.28-128-128v-682.667c0-70.72 57.28-128 128-128h682.667c70.72 0 128 57.28 128 128v682.667c0 70.72-57.28 128-128 128zM896 789.333v-298.667h-341.333v341.333h298.667c23.573 0 42.667-19.093 42.667-42.667zM170.667 832h298.667v-341.333h-341.333v298.667c0 23.573 19.093 42.667 42.667 42.667zM128 106.667v298.667h341.333v-341.333h-298.667c-23.573 0-42.667 19.093-42.667 42.667zM853.333 64h-298.667v341.333h341.333v-298.667c0-23.573-19.093-42.667-42.667-42.667z" />
<glyph unicode="&#xe93e;" glyph-name="ban" d="M512 917.333c-259.2 0-469.333-210.133-469.333-469.333 0-259.211 210.133-469.333 469.333-469.333 259.211 0 469.333 210.123 469.333 469.333 0 259.2-210.123 469.333-469.333 469.333zM128 448c0 90.667 31.499 173.941 84.043 239.616l539.584-539.573c-65.685-52.544-148.96-84.043-239.627-84.043-212.075 0-384 171.925-384 384zM811.957 208.373l-539.573 539.584c65.675 52.544 148.949 84.043 239.616 84.043 212.075 0 384-171.925 384-384 0-90.667-31.499-173.941-84.043-239.627z" />
<glyph unicode="&#xe93f;" glyph-name="maximize" d="M188.373 832h195.627c23.573 0 42.667 19.093 42.667 42.667s-19.093 42.667-42.667 42.667h-298.667c-23.573 0-42.667-19.093-42.667-42.667v-298.667c0-23.573 19.093-42.667 42.667-42.667s42.667 19.093 42.667 42.667v195.627l268.171-268.16c16.736-16.64 43.733-16.64 60.363 0s16.64 43.733 0 60.363l-268.16 268.171zM938.667 362.997c-23.573 0-42.667-19.093-42.667-42.667v-195.627l-268.309 268.16c-16.747 16.64-43.893 16.64-60.544 0s-16.651-43.893 0-60.533l268.171-268.331h-195.627c-23.584 0-42.667-19.093-42.667-42.667s19.083-42.667 42.667-42.667h298.667c23.563 0 42.976 19.413 42.976 42.997v298.667c0 23.573-19.093 42.667-42.667 42.667z" />
<glyph unicode="&#xe940;" glyph-name="file-add" d="M682.667 320c0-23.563-19.104-42.667-42.667-42.667h-85.333v-85.333c0-23.563-19.104-42.667-42.667-42.667s-42.667 19.104-42.667 42.667v85.333h-85.333c-23.563 0-42.667 19.104-42.667 42.667s19.104 42.667 42.667 42.667h85.333v85.333c0 23.563 19.104 42.667 42.667 42.667s42.667-19.104 42.667-42.667v-85.333h85.333c23.563 0 42.667-19.104 42.667-42.667zM938.667 661.333v-597.333c0-70.699-57.301-128-128-128h-597.333c-70.699 0-128 57.301-128 128v768c0 70.699 57.301 128 128 128h426.667l298.667-298.667zM640 661.333h177.995l-177.995 177.995v-177.995zM853.333 64v512h-298.667v298.667h-341.333c-15.371 0-25.504-7.829-30.165-12.501s-12.501-14.795-12.501-30.165v-768c0-15.371 7.829-25.504 12.501-30.165s14.795-12.501 30.165-12.501h597.333c15.371 0 25.504 7.829 30.165 12.501s12.501 14.795 12.501 30.165z" />
<glyph unicode="&#xe941;" glyph-name="clock" d="M512 917.333c-259.211 0-469.333-210.133-469.333-469.333 0-259.211 210.123-469.333 469.333-469.333s469.333 210.123 469.333 469.333c0 259.2-210.123 469.333-469.333 469.333zM512 64c-212.075 0-384 171.915-384 384 0 212.075 171.925 384 384 384s384-171.925 384-384c0-212.085-171.925-384-384-384zM670.165 350.165c16.661-16.661 16.661-43.68 0-60.341-8.32-8.32-19.253-12.491-30.165-12.491-10.912-0.011-21.835 4.16-30.165 12.491l-128 128c-8 8-12.501 18.848-12.501 30.176v256c0 23.563 19.104 42.667 42.667 42.667s42.667-19.104 42.667-42.667v-238.336l115.499-115.499z" />
<glyph unicode="&#xe942;" glyph-name="cog" d="M896 320c70.688 0 128 57.312 128 128s-57.312 128-128 128h-21.856c-4.544 12.843-9.739 25.376-15.573 37.557l15.467 15.456c49.984 49.995 49.984 131.029 0 181.024-49.995 49.984-131.029 49.984-181.024 0l-15.456-15.467c-12.192 5.835-24.715 11.029-37.557 15.573v21.856c0 70.688-57.312 128-128 128s-128-57.312-128-128v-21.856c-12.843-4.544-25.376-9.739-37.557-15.573l-15.456 15.467c-49.995 49.984-131.029 49.984-181.024 0-49.984-49.995-49.984-131.029 0-181.024l15.467-15.456c-5.835-12.192-11.029-24.715-15.573-37.557h-21.856c-70.688 0-128-57.312-128-128s57.312-128 128-128h21.856c4.544-12.843 9.739-25.376 15.573-37.557l-15.467-15.456c-49.984-49.995-49.984-131.029 0-181.024 49.995-49.984 131.029-49.984 181.024 0l15.456 15.467c12.192-5.835 24.715-11.029 37.557-15.573v-21.856c0-70.688 57.312-128 128-128s128 57.312 128 128v21.856c12.843 4.544 25.376 9.739 37.557 15.573l15.456-15.467c49.995-49.984 131.029-49.984 181.024 0 49.984 49.995 49.984 131.029 0 181.024l-15.467 15.456c5.835 12.192 11.029 24.715 15.573 37.557h21.856zM807.648 405.333c-7.243-50.603-27.168-97.109-56.437-136.203l62.485-62.485c16.661-16.661 16.661-43.691 0-60.341s-43.68-16.661-60.341 0l-1.664 1.675-60.821 60.811c-39.093-29.269-85.6-49.195-136.203-56.437v-88.352c0-23.563-19.104-42.667-42.667-42.667s-42.667 19.104-42.667 42.667v88.352c-50.603 7.243-97.109 27.168-136.203 56.437l-62.485-62.485c-16.661-16.661-43.691-16.661-60.341 0s-16.661 43.68 0 60.341l1.675 1.664 60.811 60.821c-29.269 39.093-49.195 85.6-56.437 136.203h-88.352c-23.563 0-42.667 19.104-42.667 42.667s19.104 42.667 42.667 42.667h88.352c7.243 50.603 27.168 97.109 56.437 136.203l-62.485 62.485c-16.661 16.661-16.661 43.691 0 60.341s43.68 16.661 60.341 0l1.664-1.675 60.821-60.811c39.093 29.269 85.589 49.195 136.203 56.437v88.352c0 23.563 19.104 42.667 42.667 42.667s42.667-19.104 42.667-42.667v-88.352c50.603-7.243 97.109-27.168 136.203-56.437l62.485 62.485c16.661 16.661 43.691 16.661 60.341 0s16.661-43.68 0-60.341l-1.675-1.664-60.811-60.821c29.269-39.093 49.195-85.589 56.437-136.203h88.352c23.563 0 42.667-19.104 42.667-42.667s-19.104-42.667-42.667-42.667h-88.352zM512 618.667c-94.261 0-170.667-76.405-170.667-170.667s76.405-170.667 170.667-170.667 170.667 76.405 170.667 170.667-76.405 170.667-170.667 170.667zM512 362.667c-47.125 0-85.333 38.208-85.333 85.333s38.208 85.333 85.333 85.333 85.333-38.208 85.333-85.333-38.208-85.333-85.333-85.333z" />
<glyph unicode="&#xe943;" glyph-name="signal" d="M620.075 248.171c-66.763 39.168-149.632 39.019-216.277-0.331-20.245-12-27.008-38.144-15.019-58.453 11.979-20.267 38.144-26.997 58.432-15.019 39.968 23.627 89.664 23.691 129.707 0.213 17.109-10.016 38.347-6.795 51.744 6.603 2.517 2.517 4.757 5.397 6.645 8.629 11.915 20.288 5.099 46.432-15.232 58.357zM214.923 427.413c-18.293-14.912-20.896-41.835-5.963-60.064 14.933-18.208 41.813-20.875 60.043-5.963 140.8 115.413 345.205 115.413 486.016 0.032 17.109-13.995 41.856-12.523 57.163 2.816 1.003 1.003 1.973 2.037 2.88 3.168 14.933 18.229 12.245 45.109-5.963 60.043-172.149 141.045-422.027 141.045-594.176-0.032zM991.861 607.989c-273.557 241.792-686.165 241.792-959.744 0-17.632-15.381-19.328-42.56-3.712-60.224 15.595-17.653 42.549-19.328 60.224-3.723 241.355 213.312 605.365 213.312 846.72 0 16.992-14.997 42.581-14.027 58.411 1.771 0.64 0.64 1.227 1.269 1.824 1.963 15.605 17.653 13.941 44.608-3.723 60.213z" />
<glyph unicode="&#xe944;" glyph-name="unlock" d="M853.333 490.667h-512v170.667c0 94.251 76.416 170.667 170.667 170.667s170.667-76.416 170.667-170.667v-42.667c0-23.563 19.104-42.667 42.667-42.667s42.667 19.104 42.667 42.667v42.667c0 141.387-114.613 256-256 256s-256-114.613-256-256v-170.667h-85.333c-70.72 0-128-57.28-128-128v-256c0-70.72 57.28-128 128-128h682.667c70.72 0 128 57.28 128 128v256c0 70.72-57.28 128-128 128zM896 106.667c0-23.573-19.093-42.667-42.667-42.667h-682.667c-23.573 0-42.667 19.093-42.667 42.667v256c0 23.573 19.093 42.667 42.667 42.667h682.667c23.573 0 42.667-19.093 42.667-42.667v-256z" />
<glyph unicode="&#xe945;" glyph-name="drop" d="M783.531 634.208l-271.531 271.531-271.531-271.531c-149.973-149.984-149.973-393.099 0-543.061s393.109-149.973 543.061 0c149.973 149.963 149.973 393.077 0 543.061zM300.811 151.488c-116.651 116.64-116.651 305.728 0 422.379l211.189 211.189 211.189-211.189c116.651-116.651 116.651-305.739 0-422.379-116.64-116.64-305.739-116.619-422.379 0z" />
<glyph unicode="&#xe946;" glyph-name="cloud-upload" d="M1024 490.667c0-197.643-149.344-360.427-341.333-381.653v86.016c144.736 20.704 256 145.184 256 295.637 0 164.949-133.717 298.667-298.667 298.667-150.443 0-274.773-111.296-295.488-256h-88.512c-94.251 0-170.667-76.405-170.667-170.667 0-70.699 42.976-131.339 104.235-157.259 20.427-8.629 42.869-13.408 66.432-13.408h170.667v-85.333h-169.835c-0.277 0-0.544-0.021-0.821-0.021-141.387 0-256.011 114.624-256.011 256.011 0 141.397 114.624 256.011 256 256.011v0h21.952c52.736 149.12 194.869 256 362.048 256 212.075 0 384-171.925 384-384zM712.832 332.48c16.661 16.661 16.661 43.68 0 60.331l-128 128c-8 8-18.859 12.501-30.165 12.501s-22.165-4.501-30.165-12.501l-128-128c-16.661-16.661-16.661-43.68 0-60.331 16.661-16.661 43.68-16.661 60.331 0l55.168 55.157v-280.992c0-23.563 19.104-42.667 42.667-42.667s42.667 19.104 42.667 42.667v280.992l55.168-55.157c16.651-16.672 43.68-16.672 60.331 0z" />
<glyph unicode="&#xe947;" glyph-name="repeat" d="M1024 789.333v-256c0-23.563-19.104-42.667-42.667-42.667h-256c-23.563 0-42.667 19.104-42.667 42.667s19.104 42.667 42.667 42.667h143.883c-57.419 55.968-102.763 100.267-115.563 113.067-0.107 0.107-0.203 0.203-0.288 0.288-32.608 32.608-70.581 57.835-112.896 74.987-40.896 16.587-84.117 24.992-128.469 24.992s-87.573-8.405-128.469-24.992c-42.315-17.152-80.288-42.389-112.896-74.987-2.859-2.859-5.675-5.76-8.427-8.715-27.307-29.259-48.949-62.539-64.469-99.157-2.379-6.688-5.344-13.163-7.712-19.872-7.915-22.091-32.213-33.653-54.357-25.845-22.101 7.797-33.749 31.947-26.165 54.059 3.232 9.333 6.869 18.549 10.805 27.616 8.512 19.701 18.528 38.763 29.92 56.917 14.357 22.912 30.987 44.544 49.557 64.459 3.435 3.691 6.933 7.328 10.507 10.891 40.715 40.715 88.213 72.245 141.163 93.717 25.451 10.325 52.053 18.208 79.072 23.435 26.773 5.184 54.176 7.808 81.472 7.808s54.699-2.624 81.461-7.808c27.019-5.227 53.621-13.109 79.072-23.435 52.96-21.472 100.448-53.003 141.163-93.717l0.629-0.629c13.675-13.632 62.987-61.803 124.341-121.6v161.856c0 23.563 19.104 42.667 42.667 42.667s42.667-19.104 42.667-42.667zM42.667 64c23.563 0 42.667 19.104 42.667 42.667v161.867c61.355-59.797 110.667-107.968 124.341-121.6l0.629-0.629c40.715-40.715 88.213-72.245 141.163-93.717 25.451-10.325 52.053-18.208 79.072-23.435 26.763-5.195 54.165-7.819 81.461-7.819 54.88 0 109.675 10.624 160.533 31.253 52.96 21.472 100.448 53.003 141.163 93.717 3.573 3.563 7.072 7.2 10.507 10.891 18.571 19.915 35.211 41.547 49.557 64.459 11.381 18.155 21.408 37.216 29.92 56.917 3.936 9.067 7.573 18.283 10.805 27.616 7.584 22.112-4.064 46.261-26.165 54.059-22.144 7.808-46.443-3.755-54.357-25.845-2.368-6.709-5.333-13.184-7.712-19.872-34.944-82.443-102.837-149.216-185.792-182.869-40.885-16.587-84.107-24.992-128.459-24.992s-87.573 8.405-128.469 24.992c-42.315 17.152-80.288 42.389-112.896 74.987-0.096 0.096-0.192 0.192-0.288 0.288-12.8 12.789-58.144 57.099-115.563 113.067h143.883c23.563 0 42.667 19.104 42.667 42.667s-19.104 42.667-42.667 42.667h-256c-23.563 0-42.667-19.104-42.667-42.667v-256c0-23.563 19.104-42.667 42.667-42.667z" />
<glyph unicode="&#xe948;" glyph-name="image" d="M853.333 917.333h-682.667c-70.688 0-128-57.312-128-128v-682.667c0-70.688 57.312-128 128-128h682.667c70.688 0 128 57.312 128 128v682.667c0 70.688-57.312 128-128 128zM896 106.667c0-23.573-19.093-42.667-42.667-42.667h-536.992l366.325 366.325 213.333-213.323v-110.336zM896 337.664l-213.333 213.333-487.008-486.997h-24.992c-23.573 0-42.667 19.093-42.667 42.667v682.667c0 23.573 19.093 42.667 42.667 42.667h682.667c23.573 0 42.667-19.093 42.667-42.667v-451.669zM341.333 746.667c-70.688 0-128-57.312-128-128s57.312-128 128-128 128 57.312 128 128-57.312 128-128 128zM341.333 576c-23.563 0-42.667 19.104-42.667 42.667s19.104 42.667 42.667 42.667 42.667-19.104 42.667-42.667-19.104-42.667-42.667-42.667z" />
<glyph unicode="&#xe949;" glyph-name="camera" d="M896 746.677h-128l-85.333 127.989h-341.333l-85.333-128h-128c-70.72 0-128-57.963-128-128.661v-468.672c0-70.72 57.28-128 128-128h768c70.72 0 128 56.629 128 127.339v468.672c0 70.72-57.28 129.333-128 129.333zM938.667 148.672c0-23.584-18.741-42.005-42.667-42.005h-768c-23.531 0-42.667 19.136-42.667 42.667v468.672c0 23.883 19.136 43.328 42.667 43.328h173.664l85.333 128h251.499l83.829-128h173.675c23.125 0 42.667-20.149 42.667-44v-468.661zM512 618.667c-117.824 0-213.333-95.52-213.333-213.333s95.52-213.333 213.333-213.333c117.824 0 213.333 95.509 213.333 213.333s-95.509 213.333-213.333 213.333zM512 277.333c-70.581 0-128 57.419-128 128s57.408 128 128 128c70.581 0 128-57.419 128-128s-57.429-128-128-128z" />
<glyph unicode="&#xe94a;" glyph-name="monitor" d="M853.333 874.667h-682.667c-70.72 0-128-57.28-128-128v-426.667c0-70.72 57.28-128 128-128h298.667v-85.333h-128c-23.563 0-42.667-19.104-42.667-42.667s19.104-42.667 42.667-42.667h341.333c23.563 0 42.667 19.104 42.667 42.667s-19.104 42.667-42.667 42.667h-128v85.333h298.667c70.72 0 128 57.28 128 128v426.667c0 70.72-57.28 128-128 128zM896 320c0-23.573-19.093-42.667-42.667-42.667h-682.667c-23.573 0-42.667 19.093-42.667 42.667v426.667c0 23.573 19.093 42.667 42.667 42.667h682.667c23.573 0 42.667-19.093 42.667-42.667v-426.667z" />
<glyph unicode="&#xe94b;" glyph-name="align-justify" d="M128 661.333h768c23.563 0 42.667 19.104 42.667 42.667s-19.104 42.667-42.667 42.667h-768c-23.563 0-42.667-19.104-42.667-42.667s19.104-42.667 42.667-42.667zM896 576h-768c-23.563 0-42.667-19.104-42.667-42.667s19.104-42.667 42.667-42.667h768c23.563 0 42.667 19.104 42.667 42.667s-19.104 42.667-42.667 42.667zM896 405.333h-768c-23.563 0-42.667-19.104-42.667-42.667s19.104-42.667 42.667-42.667h768c23.563 0 42.667 19.104 42.667 42.667s-19.104 42.667-42.667 42.667zM896 234.667h-768c-23.563 0-42.667-19.104-42.667-42.667s19.104-42.667 42.667-42.667h768c23.563 0 42.667 19.104 42.667 42.667s-19.104 42.667-42.667 42.667z" />
<glyph unicode="&#xe94c;" glyph-name="book" d="M213.333 917.333c-70.72 0-128-57.28-128-128v-682.667c0-70.72 57.28-128 128-128h682.667v938.667h-682.667zM810.667 64h-597.333c-23.563 0-42.667 19.104-42.667 42.667s19.104 42.667 42.667 42.667h597.333v-85.333zM810.667 234.667h-597.333c-14.987 0-29.301-2.709-42.667-7.435v562.101c0 23.573 19.093 42.667 42.667 42.667h597.333v-597.333z" />
<glyph unicode="&#xe94d;" glyph-name="paper" d="M810.667 960h-597.333c-70.72 0-128-57.28-128-128v-768c0-70.72 57.28-128 128-128h597.333c70.72 0 128 57.28 128 128v768c0 70.72-57.28 128-128 128zM853.333 64c0-23.573-19.093-42.667-42.667-42.667h-597.333c-23.573 0-42.667 19.093-42.667 42.667v768c0 23.573 19.093 42.667 42.667 42.667h597.333c23.573 0 42.667-19.093 42.667-42.667v-768zM682.667 234.667h-341.333c-23.563 0-42.667-19.104-42.667-42.667s19.104-42.667 42.667-42.667h341.333c23.563 0 42.667 19.104 42.667 42.667s-19.104 42.667-42.667 42.667zM682.667 405.333h-341.333c-23.563 0-42.667-19.104-42.667-42.667s19.104-42.667 42.667-42.667h341.333c23.563 0 42.667 19.104 42.667 42.667s-19.104 42.667-42.667 42.667zM682.667 576h-341.333c-23.563 0-42.667-19.104-42.667-42.667s19.104-42.667 42.667-42.667h341.333c23.563 0 42.667 19.104 42.667 42.667s-19.104 42.667-42.667 42.667zM341.333 661.333h170.667c23.563 0 42.667 19.104 42.667 42.667s-19.104 42.667-42.667 42.667h-170.667c-23.563 0-42.667-19.104-42.667-42.667s19.104-42.667 42.667-42.667z" />
<glyph unicode="&#xe94e;" glyph-name="reply" d="M597.333 576h-409.003l198.699 198.688c16.661 16.661 16.661 43.68 0 60.341s-43.68 16.661-60.341 0l-271.52-271.52c-16.661-16.661-16.661-43.691 0-60.341l271.52-271.531c16.661-16.661 43.691-16.661 60.341 0s16.661 43.68 0 60.341l-198.677 198.688h408.981c164.949 0 298.667-133.717 298.667-298.667v-42.667c0-23.563 19.104-42.667 42.667-42.667s42.667 19.104 42.667 42.667v42.667c0 212.085-171.925 384-384 384z" />
<glyph unicode="&#xe94f;" glyph-name="circle-cross" d="M512 917.333c-259.2 0-469.333-210.123-469.333-469.333s210.133-469.333 469.333-469.333 469.333 210.123 469.333 469.333-210.133 469.333-469.333 469.333zM512 64c-212.075 0-384 171.925-384 384s171.925 384 384 384 384-171.925 384-384-171.925-384-384-384zM662.859 598.837c-16.661 16.661-43.701 16.661-60.352 0l-90.507-90.496-90.496 90.485c-16.661 16.661-43.691 16.661-60.352 0s-16.661-43.691 0-60.331l90.507-90.496-90.507-90.496c-16.661-16.661-16.661-43.691 0-60.331 16.661-16.661 43.691-16.661 60.352 0l90.496 90.485 90.496-90.485c16.661-16.661 43.691-16.661 60.352 0s16.661 43.701 0 60.331l-90.507 90.496 90.507 90.496c16.661 16.672 16.661 43.691 0.011 60.341z" />
<glyph unicode="&#xe950;" glyph-name="square-cross" d="M853.333 917.333h-682.667c-70.72 0-128-57.28-128-128v-682.667c0-70.72 57.28-128 128-128h682.667c70.72 0 128 57.28 128 128v682.667c0 70.72-57.28 128-128 128zM896 106.667c0-23.573-19.093-42.667-42.667-42.667h-682.667c-23.573 0-42.667 19.093-42.667 42.667v682.667c0 23.573 19.093 42.667 42.667 42.667h682.667c23.573 0 42.667-19.093 42.667-42.667v-682.667zM662.859 598.859c-16.661 16.661-43.701 16.661-60.352 0l-90.507-90.517-90.496 90.507c-16.661 16.661-43.691 16.661-60.352 0s-16.661-43.712 0-60.352l90.507-90.496-90.507-90.496c-16.661-16.661-16.661-43.691 0-60.352s43.691-16.661 60.352 0l90.496 90.507 90.496-90.507c16.661-16.661 43.691-16.661 60.352 0s16.661 43.723 0 60.352l-90.507 90.496 90.507 90.496c16.661 16.661 16.661 43.691 0.011 60.363z" />
<glyph unicode="&#xe951;" glyph-name="play" d="M256 681.28l388.811-233.28-388.811-233.28v466.56zM170.667 832v-768l640 384-640 384z" />
<glyph unicode="&#xe952;" glyph-name="folder" d="M399.083 699.328l24.576-37.995h429.675c23.531 0 42.667-19.136 42.667-42.667v-469.333c0-23.531-19.136-42.667-42.667-42.667h-682.667c-23.531 0-42.667 19.136-42.667 42.667v597.333c0 23.531 19.136 42.667 42.667 42.667h170.667l57.749-90.005zM384 874.667h-213.333c-70.72 0-128-57.28-128-128v-597.333c0-70.72 57.28-128 128-128h682.667c70.72 0 128 57.28 128 128v469.333c0 70.72-57.28 128-128 128h-384l-85.333 128z" />
<glyph unicode="&#xe953;" glyph-name="map" d="M682.667 746.667l-340.459 213.333-342.208-213.664v-810.336l341.333 213.333 341.333-213.333 341.333 213.333v810.667l-341.333-213.333zM85.333 89.963v609.045l213.333 133.205v-608.896l-2.56-1.589-210.773-131.765zM384 223.317v609.792l256-160.427v-609.397l-256 160.032zM938.667 196.629l-213.333-133.333v609.387l213.333 133.355v-609.408z" />
<glyph unicode="&#xe954;" glyph-name="anchor" d="M938.667 490.667c-23.563 0-42.667-19.104-42.667-42.667 0-197.643-149.355-360.352-341.333-381.579v515.157c73.557 18.987 128 85.589 128 165.088 0 94.251-76.416 170.667-170.667 170.667s-170.667-76.416-170.667-170.667c0-79.499 54.443-146.101 128-165.088v-515.168c-191.989 21.237-341.333 183.947-341.333 381.589 0 23.563-19.104 42.667-42.667 42.667s-42.667-19.104-42.667-42.667c0-259.211 210.133-469.333 469.333-469.333 259.211 0 469.333 210.123 469.333 469.333 0 23.563-19.104 42.667-42.667 42.667zM426.667 746.667c0 47.125 38.208 85.333 85.333 85.333s85.333-38.208 85.333-85.333-38.208-85.333-85.333-85.333-85.333 38.208-85.333 85.333z" />
<glyph unicode="&#xe955;" glyph-name="share" d="M768 362.667c-51.328 0-97.28-22.795-128.587-58.677l-216.555 108.277c2.453 11.52 3.808 23.488 3.808 35.733s-1.355 24.213-3.808 35.733l216.565 108.277c31.285-35.893 77.248-58.677 128.576-58.677 94.251 0 170.667 76.416 170.667 170.667s-76.416 170.667-170.667 170.667-170.667-76.416-170.667-170.667c0-12.245 1.355-24.213 3.808-35.733l-216.555-108.277c-31.296 35.893-77.237 58.677-128.587 58.677-94.251 0-170.667-76.416-170.667-170.667s76.416-170.667 170.667-170.667c51.349 0 97.28 22.795 128.587 58.677l216.555-108.277c-2.453-11.52-3.808-23.488-3.808-35.733 0-94.251 76.416-170.667 170.667-170.667s170.667 76.416 170.667 170.667-76.416 170.667-170.667 170.667zM768 789.333c47.125 0 85.333-38.208 85.333-85.333s-38.208-85.333-85.333-85.333-85.333 38.208-85.333 85.333 38.208 85.333 85.333 85.333zM256 362.667c-47.125 0-85.333 38.208-85.333 85.333s38.208 85.333 85.333 85.333 85.333-38.208 85.333-85.333-38.208-85.333-85.333-85.333zM768 106.667c-47.125 0-85.333 38.208-85.333 85.333s38.208 85.333 85.333 85.333 85.333-38.208 85.333-85.333-38.208-85.333-85.333-85.333z" />
<glyph unicode="&#xe956;" glyph-name="alt" d="M896 106.667h-213.333c-15.317 0-29.451 8.213-37.045 21.504l-329.045 575.829h-188.576c-23.563 0-42.667 19.104-42.667 42.667s19.104 42.667 42.667 42.667h213.333c15.317 0 29.451-8.213 37.045-21.504l329.045-575.829h188.576c23.563 0 42.667-19.104 42.667-42.667s-19.104-42.667-42.667-42.667zM853.333 746.667c0 23.563-19.104 42.667-42.667 42.667h-213.333c-23.563 0-42.667-19.104-42.667-42.667s19.104-42.667 42.667-42.667h213.333c23.563 0 42.667 19.104 42.667 42.667z" />
<glyph unicode="&#xe957;" glyph-name="star" d="M511.989 663.904l53.355-169.547h165.237l-132.757-89.216 52.171-157.856-137.685 101.109-138.133-99.872 52.128 157.333-133.376 88.512h165.717l53.344 169.536zM511.989 934.709l-115.349-355.008h-373.28l301.995-209.824-115.36-346.773 301.995 219.168 302.005-220.939-115.36 348.811 302.005 209.557h-373.301l-115.349 355.008z" />
<glyph unicode="&#xe958;" glyph-name="grid" d="M341.333 917.333h-170.667c-70.72 0-128-57.28-128-128v-170.667c0-70.72 57.28-128 128-128h170.667c70.72 0 128 57.28 128 128v170.667c0 70.72-57.28 128-128 128zM384 618.667c0-23.573-19.093-42.667-42.667-42.667h-170.667c-23.573 0-42.667 19.093-42.667 42.667v170.667c0 23.573 19.093 42.667 42.667 42.667h170.667c23.573 0 42.667-19.093 42.667-42.667v-170.667zM853.333 917.333h-170.667c-70.72 0-128-57.28-128-128v-170.667c0-70.72 57.28-128 128-128h170.667c70.72 0 128 57.28 128 128v170.667c0 70.72-57.28 128-128 128zM896 618.667c0-23.573-19.093-42.667-42.667-42.667h-170.667c-23.573 0-42.667 19.093-42.667 42.667v170.667c0 23.573 19.093 42.667 42.667 42.667h170.667c23.573 0 42.667-19.093 42.667-42.667v-170.667zM853.333 405.333h-170.667c-70.72 0-128-57.28-128-128v-170.667c0-70.72 57.28-128 128-128h170.667c70.72 0 128 57.28 128 128v170.667c0 70.72-57.28 128-128 128zM896 106.667c0-23.573-19.093-42.667-42.667-42.667h-170.667c-23.573 0-42.667 19.093-42.667 42.667v170.667c0 23.573 19.093 42.667 42.667 42.667h170.667c23.573 0 42.667-19.093 42.667-42.667v-170.667zM341.333 405.333h-170.667c-70.72 0-128-57.28-128-128v-170.667c0-70.72 57.28-128 128-128h170.667c70.72 0 128 57.28 128 128v170.667c0 70.72-57.28 128-128 128zM384 106.667c0-23.573-19.093-42.667-42.667-42.667h-170.667c-23.573 0-42.667 19.093-42.667 42.667v170.667c0 23.573 19.093 42.667 42.667 42.667h170.667c23.573 0 42.667-19.093 42.667-42.667v-170.667z" />
<glyph unicode="&#xe959;" glyph-name="content-right" d="M341.333 917.333h-170.667c-70.72 0-128-57.28-128-128v-170.667c0-70.72 57.28-128 128-128h170.667c70.72 0 128 57.28 128 128v170.667c0 70.72-57.28 128-128 128zM384 618.667c0-23.573-19.093-42.667-42.667-42.667h-170.667c-23.573 0-42.667 19.093-42.667 42.667v170.667c0 23.573 19.093 42.667 42.667 42.667h170.667c23.573 0 42.667-19.093 42.667-42.667v-170.667zM853.333 917.333h-170.667c-70.72 0-128-57.28-128-128v-682.667c0-70.72 57.28-128 128-128h170.667c70.72 0 128 57.28 128 128v682.667c0 70.72-57.28 128-128 128zM896 106.667c0-23.573-19.093-42.667-42.667-42.667h-170.667c-23.573 0-42.667 19.093-42.667 42.667v682.667c0 23.573 19.093 42.667 42.667 42.667h170.667c23.573 0 42.667-19.093 42.667-42.667v-682.667zM341.333 405.333h-170.667c-70.72 0-128-57.28-128-128v-170.667c0-70.72 57.28-128 128-128h170.667c70.72 0 128 57.28 128 128v170.667c0 70.72-57.28 128-128 128zM384 106.667c0-23.573-19.093-42.667-42.667-42.667h-170.667c-23.573 0-42.667 19.093-42.667 42.667v170.667c0 23.573 19.093 42.667 42.667 42.667h170.667c23.573 0 42.667-19.093 42.667-42.667v-170.667z" />
<glyph unicode="&#xe95a;" glyph-name="content-left" d="M554.667 789.333v-170.667c0-70.72 57.28-128 128-128h170.667c70.72 0 128 57.28 128 128v170.667c0 70.72-57.28 128-128 128h-170.667c-70.72 0-128-57.28-128-128zM640 789.333c0 23.573 19.093 42.667 42.667 42.667h170.667c23.573 0 42.667-19.093 42.667-42.667v-170.667c0-23.573-19.093-42.667-42.667-42.667h-170.667c-23.573 0-42.667 19.093-42.667 42.667v170.667zM42.667 789.333v-682.667c0-70.72 57.28-128 128-128h170.667c70.72 0 128 57.28 128 128v682.667c0 70.72-57.28 128-128 128h-170.667c-70.72 0-128-57.28-128-128zM128 789.333c0 23.573 19.093 42.667 42.667 42.667h170.667c23.573 0 42.667-19.093 42.667-42.667v-682.667c0-23.573-19.093-42.667-42.667-42.667h-170.667c-23.573 0-42.667 19.093-42.667 42.667v682.667zM554.667 277.333v-170.667c0-70.72 57.28-128 128-128h170.667c70.72 0 128 57.28 128 128v170.667c0 70.72-57.28 128-128 128h-170.667c-70.72 0-128-57.28-128-128zM640 277.333c0 23.573 19.093 42.667 42.667 42.667h170.667c23.573 0 42.667-19.093 42.667-42.667v-170.667c0-23.573-19.093-42.667-42.667-42.667h-170.667c-23.573 0-42.667 19.093-42.667 42.667v170.667z" />
<glyph unicode="&#xe95b;" glyph-name="bag" d="M725.333 704v42.667c0 117.824-95.509 213.333-213.333 213.333s-213.333-95.509-213.333-213.333v-42.667h-170.667v-640c0-70.72 57.28-128 128-128h512c70.72 0 128 57.28 128 128v640h-170.667zM384 746.667c0 70.688 57.312 128 128 128s128-57.312 128-128v-42.667h-256v42.667zM810.667 64c0-23.573-19.093-42.667-42.667-42.667h-512c-23.573 0-42.667 19.093-42.667 42.667v554.667h597.333v-554.667z" />
<glyph unicode="&#xe95c;" glyph-name="contract" d="M810.667 618.667h128c23.563 0 42.667 19.104 42.667 42.667s-19.104 42.667-42.667 42.667h-128c-23.573 0-42.667 19.093-42.667 42.667v128c0 23.563-19.104 42.667-42.667 42.667s-42.667-19.104-42.667-42.667v-128c0-70.688 57.312-128 128-128zM85.333 618.667h128c70.688 0 128 57.312 128 128v128c0 23.563-19.104 42.667-42.667 42.667s-42.667-19.104-42.667-42.667v-128c0-23.573-19.093-42.667-42.667-42.667h-128c-23.563 0-42.667-19.104-42.667-42.667s19.104-42.667 42.667-42.667zM725.333-21.333c23.563 0 42.667 19.104 42.667 42.667v128c0 23.573 19.093 42.667 42.667 42.667h128c23.563 0 42.667 19.104 42.667 42.667s-19.104 42.667-42.667 42.667h-128c-70.688 0-128-57.312-128-128v-128c0-23.563 19.104-42.667 42.667-42.667zM85.333 192h128c23.573 0 42.667-19.093 42.667-42.667v-128c0-23.563 19.104-42.667 42.667-42.667s42.667 19.104 42.667 42.667v128c0 70.688-57.312 128-128 128h-128c-23.563 0-42.667-19.104-42.667-42.667s19.104-42.667 42.667-42.667z" />
<glyph unicode="&#xe95d;" glyph-name="move" d="M1011.499 478.176l-150.827 150.848c-16.661 16.661-43.691 16.661-60.352 0s-16.661-43.691 0-60.341l78.016-78.016h-323.669v323.648l77.995-77.995c16.661-16.661 43.691-16.661 60.352 0s16.661 43.68 0 60.341l-150.848 150.848c-16.661 16.661-43.691 16.661-60.341 0l-150.848-150.859c-16.661-16.661-16.661-43.691 0-60.341 16.661-16.661 43.68-16.661 60.331 0l78.027 78.005v-323.648h-323.659l78.005 78.005c16.661 16.661 16.661 43.68 0 60.341s-43.691 16.661-60.352 0l-150.837-150.837c-16.661-16.661-16.661-43.669 0-60.341l150.869-150.859c16.661-16.661 43.68-16.661 60.331 0 16.661 16.651 16.661 43.669 0 60.331l-78.016 78.027h323.659v-323.669l-77.995 78.016c-16.661 16.651-43.691 16.651-60.352 0-16.661-16.661-16.661-43.691 0-60.352l150.848-150.848c16.661-16.651 43.691-16.651 60.341 0l150.869 150.859c16.661 16.661 16.661 43.691 0 60.352-16.661 16.651-43.691 16.651-60.352 0l-78.027-78.027v323.669h323.659l-78.005-77.995c-16.661-16.661-16.661-43.691 0-60.352s43.691-16.661 60.352 0l150.848 150.859c16.651 16.629 16.651 43.669-0.021 60.331z" />
<glyph unicode="&#xe95e;" glyph-name="outbox" d="M268.501 631.157c-16.661 16.661-16.661 43.68 0 60.341l213.333 213.333c16.661 16.661 43.68 16.661 60.331 0l213.333-213.333c16.661-16.661 16.661-43.68 0-60.341-8.331-8.331-19.253-12.491-30.165-12.491s-21.835 4.16-30.165 12.491l-140.501 140.501v-494.325c0-23.563-19.104-42.667-42.667-42.667s-42.667 19.104-42.667 42.667v494.325l-140.501-140.501c-16.651-16.651-43.68-16.651-60.331 0zM938.667 320c-23.563 0-42.667-19.104-42.667-42.667v-170.667c0-23.52-18.635-42.667-41.547-42.667h-683.787c-23.531 0-42.667 19.147-42.667 42.667v170.667c0 23.563-19.104 42.667-42.667 42.667s-42.667-19.104-42.667-42.667v-170.667c0-17.269 3.381-34.016 10.069-49.835 6.443-15.253 15.68-28.939 27.413-40.661 11.744-11.755 25.429-20.981 40.672-27.413 15.819-6.699 32.587-10.091 49.845-10.091h683.787c17.173 0 33.867 3.413 49.579 10.144 15.125 6.496 28.693 15.755 40.331 27.541 11.595 11.755 20.683 25.44 27.051 40.661 6.592 15.755 9.92 32.469 9.92 49.653v170.667c0 23.563-19.104 42.667-42.667 42.667z" />
<glyph unicode="&#xe95f;" glyph-name="search" d="M968.843 51.499l-242.144 242.144c52.555 65.696 83.968 149.024 83.968 239.691 0 212.075-171.915 384-384 384-212.075 0-384-171.925-384-384s171.925-384 384-384c90.667 0 173.995 31.424 239.691 83.979l242.144-242.144c8.331-8.331 19.253-12.501 30.165-12.501 10.923 0 21.845 4.171 30.176 12.501 16.661 16.651 16.661 43.68 0 60.331zM426.667 234.667c-164.949 0-298.667 133.717-298.667 298.667s133.717 298.667 298.667 298.667c164.96 0 298.667-133.717 298.667-298.667s-133.707-298.667-298.667-298.667z" />
<glyph unicode="&#xe960;" glyph-name="zoom-out" d="M968.843 51.499l-242.144 242.144c52.555 65.696 83.968 149.024 83.968 239.691 0 212.075-171.915 384-384 384-212.075 0-384-171.925-384-384s171.925-384 384-384c90.667 0 173.995 31.424 239.691 83.968l242.144-242.133c8.331-8.331 19.253-12.501 30.165-12.501 10.923 0 21.845 4.171 30.176 12.501 16.661 16.651 16.661 43.68 0 60.331zM426.667 234.667c-164.949 0-298.667 133.717-298.667 298.667s133.717 298.667 298.667 298.667c164.96 0 298.667-133.717 298.667-298.667s-133.707-298.667-298.667-298.667zM597.333 533.333c0-23.563-19.093-42.667-42.667-42.667h-256c-23.563 0-42.667 19.104-42.667 42.667s19.104 42.667 42.667 42.667h256c23.573 0 42.667-19.104 42.667-42.667z" />
<glyph unicode="&#xe961;" glyph-name="zoom-in" d="M968.843 51.499l-242.144 242.144c52.555 65.696 83.968 149.024 83.968 239.691 0 212.075-171.915 384-384 384-212.075 0-384-171.925-384-384s171.925-384 384-384c90.667 0 173.995 31.424 239.691 83.979l242.144-242.144c8.331-8.331 19.253-12.501 30.165-12.501 10.923 0 21.845 4.171 30.176 12.501 16.661 16.651 16.661 43.68 0 60.331zM426.667 234.667c-164.949 0-298.667 133.717-298.667 298.667s133.717 298.667 298.667 298.667c164.96 0 298.667-133.717 298.667-298.667s-133.707-298.667-298.667-298.667zM597.333 533.333c0-23.563-19.093-42.667-42.667-42.667h-85.333v-85.333c0-23.563-19.093-42.667-42.667-42.667-23.563 0-42.667 19.104-42.667 42.667v85.333h-85.333c-23.563 0-42.667 19.104-42.667 42.667s19.104 42.667 42.667 42.667h85.333v85.333c0 23.563 19.104 42.667 42.667 42.667 23.573 0 42.667-19.104 42.667-42.667v-85.333h85.333c23.573 0 42.667-19.104 42.667-42.667z" />
<glyph unicode="&#xe962;" glyph-name="paper-clip" d="M341.333-3.893c-38.773 0-76.576 7.36-112.363 21.877-37.077 15.040-70.325 37.109-98.827 65.6s-50.571 61.749-65.6 98.827c-14.517 35.787-21.877 73.589-21.877 112.363s7.36 76.587 21.877 112.373c15.029 37.077 37.109 70.325 65.6 98.827l0.075 0.075 393.547 391.659c20.288 20.277 43.968 36 70.379 46.709 25.483 10.336 52.395 15.584 80 15.584 27.595 0 54.507-5.248 80-15.584 26.411-10.709 50.080-26.432 70.379-46.709 20.288-20.288 36-43.968 46.72-70.379 10.336-25.493 15.573-52.405 15.573-80.011s-5.237-54.517-15.573-80.011c-10.72-26.411-26.432-50.080-46.72-70.379l-392.683-392.661c-12.213-12.213-26.453-21.664-42.368-28.128-15.339-6.219-31.541-9.376-48.149-9.376s-32.8 3.157-48.149 9.376c-15.904 6.453-30.155 15.915-42.368 28.128-12.213 12.203-21.664 26.453-28.117 42.357-6.197 15.349-9.355 31.541-9.355 48.149s3.157 32.811 9.376 48.149c6.443 15.904 15.904 30.165 28.117 42.379l362.037 362.027c16.661 16.661 43.68 16.661 60.341 0s16.661-43.68 0-60.341l-362.037-362.027c-8.064-8.075-12.501-18.795-12.501-30.187s4.437-22.101 12.501-30.165c8.053-8.064 18.773-12.501 30.165-12.501s22.112 4.437 30.165 12.501l392.683 392.672c24.053 24.053 37.301 56.032 37.301 90.037s-13.248 65.995-37.301 90.037c-24.043 24.064-56.021 37.312-90.037 37.312s-66.005-13.248-90.037-37.301l-0.075-0.075-393.579-391.691c-20.363-20.373-36.128-44.107-46.848-70.528-10.347-25.547-15.605-52.576-15.605-80.299s5.259-54.741 15.616-80.288c10.731-26.443 26.485-50.176 46.88-70.549 20.373-20.373 44.117-36.149 70.539-46.869 25.557-10.368 52.576-15.627 80.299-15.627s54.752 5.259 80.299 15.627c26.443 10.72 50.165 26.485 70.549 46.869l392.213 392.213c16.661 16.661 43.68 16.661 60.331 0 16.661-16.661 16.661-43.68 0-60.341l-392.213-392.213c-28.491-28.491-61.739-50.56-98.827-65.6-35.765-14.528-73.579-21.888-112.352-21.888z" />
<glyph unicode="&#xe963;" glyph-name="layout" d="M853.333 917.333h-682.667c-70.699 0-128-57.312-128-128v-682.667c0-70.688 57.301-128 128-128h682.667c70.699 0 128 57.312 128 128v682.667c0 70.688-57.301 128-128 128zM170.667 832h682.667c23.563 0 42.667-19.104 42.667-42.667v-128h-768v128c0 23.563 19.104 42.667 42.667 42.667zM128 106.667v469.333h213.333v-512h-170.667c-23.563 0-42.667 19.104-42.667 42.667zM853.333 64h-426.667v512h469.333v-469.333c0-23.563-19.104-42.667-42.667-42.667z" />
<glyph unicode="&#xe964;" glyph-name="lock" d="M853.333 490.667h-85.333v170.667c0 141.387-114.613 256-256 256s-256-114.613-256-256v-170.667h-85.333c-70.72 0-128-57.28-128-128v-256c0-70.72 57.28-128 128-128h682.667c70.72 0 128 57.28 128 128v256c0 70.72-57.28 128-128 128zM341.333 661.333c0 94.251 76.416 170.667 170.667 170.667s170.667-76.416 170.667-170.667v-170.667h-341.333v170.667zM896 106.667c0-23.573-19.093-42.667-42.667-42.667h-682.667c-23.573 0-42.667 19.093-42.667 42.667v256c0 23.573 19.093 42.667 42.667 42.667h682.667c23.573 0 42.667-19.093 42.667-42.667v-256z" />
<glyph unicode="&#xe965;" glyph-name="thermometer" d="M640 351.691v458.976c0 82.475-66.859 149.333-149.333 149.333s-149.333-66.859-149.333-149.333v-458.976c-52.117-43.019-85.333-108.149-85.333-181.024 0-129.6 105.067-234.667 234.667-234.667s234.667 105.067 234.667 234.667c0 72.875-33.216 138.005-85.333 181.024zM490.667 21.333c-82.475 0-149.333 66.859-149.333 149.333 0 59.541 34.912 110.784 85.333 134.773v505.227c0 35.328 28.672 64 64 64s64-28.672 64-64v-505.227c50.421-23.989 85.333-75.232 85.333-134.773 0-82.475-66.859-149.333-149.333-149.333z" />
<glyph unicode="&#xe966;" glyph-name="cloud-download" d="M712.832 264.832c16.661-16.661 16.661-43.68 0-60.331l-128-128c-8-8-18.848-12.501-30.165-12.501s-22.165 4.501-30.165 12.501l-128 128c-16.661 16.661-16.661 43.68 0 60.331 16.661 16.661 43.68 16.661 60.331 0l55.168-55.157v280.992c0 23.563 19.104 42.667 42.667 42.667s42.667-19.104 42.667-42.667v-280.992l55.168 55.157c16.651 16.672 43.68 16.672 60.331 0zM640 874.667c-167.179 0-309.312-106.88-362.048-256h-21.92c0 0-0.011 0-0.021 0-141.387 0-256.011-114.613-256.011-256.011 0-141.387 114.624-256.011 256.011-256.011 0.277 0 0.544 0.021 0.821 0.021h116.811l-37.493 37.493c-12.203 12.203-21.643 26.443-28.117 42.389-0.725 1.813-1.419 3.627-2.059 5.461h-49.973c-23.563 0-46.005 4.768-66.432 13.408-61.259 25.909-104.235 86.56-104.235 157.248 0 94.261 76.416 170.667 170.667 170.667h88.512c20.715 144.704 145.045 256 295.488 256 164.949 0 298.667-133.717 298.667-298.667 0-101.675-50.816-191.488-128.437-245.44 0.288-3.499 0.437-7.019 0.437-10.56 0-16.587-3.157-32.768-9.376-48.128-6.464-15.936-15.915-30.187-28.117-42.389l-20.779-20.779c157.237 48.064 271.605 194.325 271.605 367.296 0 212.075-171.925 384-384 384z" />
<glyph unicode="&#xe967;" glyph-name="reload" d="M981.333 789.333v-256c0-23.563-19.104-42.667-42.667-42.667h-256c-23.563 0-42.667 19.104-42.667 42.667s19.104 42.667 42.667 42.667h143.883c-57.867 56.405-103.467 100.981-115.851 113.355-32.608 32.608-70.581 57.835-112.896 74.987-40.896 16.587-84.117 24.992-128.469 24.992s-87.573-8.405-128.469-24.992c-42.315-17.152-80.288-42.389-112.896-74.987-32.597-32.597-57.824-70.571-74.976-112.885-16.587-40.896-24.992-84.117-24.992-128.469s8.405-87.573 24.992-128.469c17.152-42.315 42.389-80.288 74.976-112.885 32.608-32.608 70.581-57.835 112.896-74.987 40.896-16.587 84.117-24.992 128.469-24.992s87.573 8.405 128.469 24.992c42.315 17.152 80.288 42.389 112.896 74.987 18.304 18.315 34.485 38.603 48.107 60.309 13.227 21.109 24.139 43.733 32.427 67.232 7.829 22.229 32.213 33.888 54.432 26.048s33.888-32.213 26.048-54.432c-10.389-29.44-24.043-57.749-40.608-84.171-17.024-27.157-37.227-52.501-60.075-75.339-40.715-40.715-88.213-72.245-141.163-93.717-25.451-10.325-52.053-18.208-79.072-23.435-26.763-5.184-54.165-7.808-81.461-7.808s-54.699 2.624-81.461 7.808c-27.019 5.227-53.621 13.109-79.072 23.435-52.96 21.472-100.448 53.003-141.163 93.717s-72.256 88.213-93.717 141.173c-10.325 25.451-18.208 52.053-23.445 79.072-5.184 26.773-7.808 54.165-7.808 81.461s2.624 54.688 7.797 81.461c5.237 27.019 13.12 53.621 23.445 79.072 21.472 52.96 53.003 100.448 93.717 141.163s88.213 72.245 141.163 93.717c25.451 10.325 52.053 18.208 79.072 23.435 26.773 5.195 54.176 7.819 81.472 7.819s54.699-2.624 81.461-7.808c27.019-5.227 53.621-13.109 79.072-23.435 52.96-21.472 100.448-53.003 141.163-93.717 12.747-12.747 62.645-61.483 124.971-122.24v161.867c0 23.563 19.104 42.667 42.667 42.667s42.667-19.104 42.667-42.667z" />
<glyph unicode="&#xe968;" glyph-name="target" d="M512 917.333c-259.211 0-469.333-210.123-469.333-469.333s210.123-469.333 469.333-469.333 469.333 210.123 469.333 469.333-210.123 469.333-469.333 469.333zM512 64c-212.075 0-384 171.925-384 384s171.925 384 384 384 384-171.925 384-384-171.925-384-384-384zM512 746.667c-164.949 0-298.667-133.717-298.667-298.667s133.717-298.667 298.667-298.667 298.667 133.717 298.667 298.667-133.717 298.667-298.667 298.667zM512 234.667c-117.824 0-213.333 95.509-213.333 213.333s95.509 213.333 213.333 213.333 213.333-95.509 213.333-213.333-95.509-213.333-213.333-213.333zM512 576c-70.688 0-128-57.312-128-128s57.312-128 128-128 128 57.312 128 128-57.312 128-128 128zM512 405.333c-23.563 0-42.667 19.104-42.667 42.667s19.104 42.667 42.667 42.667 42.667-19.104 42.667-42.667-19.104-42.667-42.667-42.667z" />
<glyph unicode="&#xe969;" glyph-name="air-play" d="M256 21.333h512l-256 341.333-256-341.333zM426.667 106.667l85.333 113.781 85.333-113.781h-170.667zM853.333 874.667h-682.667c-70.72 0-128-57.28-128-128v-426.667c0-70.72 57.28-128 128-128h106.667l64 85.333h-170.667c-23.573 0-42.667 19.093-42.667 42.667v426.667c0 23.573 19.093 42.667 42.667 42.667h682.667c23.573 0 42.667-19.093 42.667-42.667v-426.667c0-23.573-19.093-42.667-42.667-42.667h-170.667l64-85.333h106.667c70.72 0 128 57.28 128 128v426.667c0 70.72-57.28 128-128 128z" />
<glyph unicode="&#xe96a;" glyph-name="printer" d="M853.333 533.333h-85.333v213.333c0 70.72-57.28 128-128 128h-256c-70.72 0-128-57.28-128-128v-213.333h-85.333c-70.72 0-128-57.28-128-128v-170.667c0-70.72 57.28-128 128-128h92.768c17.579-49.675 64.853-85.333 120.565-85.333h256c55.712 0 102.955 35.659 120.565 85.333h92.768c70.72 0 128 57.28 128 128v170.667c0 70.72-57.28 128-128 128zM341.333 746.667c0 23.573 19.093 42.667 42.667 42.667h256c23.573 0 42.667-19.093 42.667-42.667v-213.333h-341.333v213.333zM640 106.667h-256c-23.563 0-42.667 19.104-42.667 42.667s19.104 42.667 42.667 42.667h256c23.563 0 42.667-19.104 42.667-42.667s-19.104-42.667-42.667-42.667zM896 234.667c0-23.573-19.093-42.667-42.667-42.667h-92.768c-17.568 49.675-64.853 85.333-120.565 85.333h-256c-55.712 0-102.955-35.659-120.565-85.333h-92.768c-23.573 0-42.667 19.093-42.667 42.667v170.667c0 23.573 19.093 42.667 42.667 42.667h682.667c23.573 0 42.667-19.093 42.667-42.667v-170.667z" />
<glyph unicode="&#xe96b;" glyph-name="paragraph" d="M810.667 917.333h-384c-141.387 0-256-114.613-256-256s114.613-256 256-256h170.667v-384c0-23.563 19.104-42.667 42.667-42.667s42.667 19.104 42.667 42.667v810.667h85.333v-810.667c0-23.563 19.104-42.667 42.667-42.667s42.667 19.104 42.667 42.667v853.333c0 23.563-19.104 42.667-42.667 42.667zM256 661.333c0 94.251 76.416 170.667 170.667 170.667h170.667v-341.333h-170.667c-94.251 0-170.667 76.416-170.667 170.667z" />
<glyph unicode="&#xe96c;" glyph-name="align-right" d="M938.667 704c0 23.563-19.104 42.667-42.667 42.667h-768c-23.563 0-42.667-19.104-42.667-42.667s19.104-42.667 42.667-42.667h768c23.563 0 42.667 19.104 42.667 42.667zM938.667 533.333c0 23.563-19.104 42.667-42.667 42.667h-597.333c-23.563 0-42.667-19.104-42.667-42.667s19.104-42.667 42.667-42.667h597.333c23.563 0 42.667 19.104 42.667 42.667zM85.333 362.667c0-23.563 19.104-42.667 42.667-42.667h768c23.563 0 42.667 19.104 42.667 42.667s-19.104 42.667-42.667 42.667h-768c-23.563 0-42.667-19.104-42.667-42.667zM256 192c0-23.563 19.104-42.667 42.667-42.667h597.333c23.563 0 42.667 19.104 42.667 42.667s-19.104 42.667-42.667 42.667h-597.333c-23.563 0-42.667-19.104-42.667-42.667z" />
<glyph unicode="&#xe96d;" glyph-name="stack-2" d="M170.667 149.333v547.317c-49.707-17.504-85.333-64.864-85.333-120.651v-426.667c0-70.72 57.28-128 128-128h426.667c55.787 0 103.147 35.627 120.651 85.333h-547.317c-23.573 0-42.667 19.093-42.667 42.667zM810.667 874.667h-426.667c-70.72 0-128-57.28-128-128v-426.667c0-70.72 57.28-128 128-128h426.667c70.72 0 128 57.28 128 128v426.667c0 70.72-57.28 128-128 128zM853.333 320c0-23.573-19.093-42.667-42.667-42.667h-426.667c-23.573 0-42.667 19.093-42.667 42.667v426.667c0 23.573 19.093 42.667 42.667 42.667h426.667c23.573 0 42.667-19.093 42.667-42.667v-426.667z" />
<glyph unicode="&#xe96e;" glyph-name="cross" d="M572.341 448l268.491 268.501c16.661 16.661 16.661 43.68 0 60.331-16.661 16.661-43.669 16.661-60.331 0l-268.501-268.491-268.491 268.491c-16.661 16.661-43.68 16.661-60.341 0s-16.661-43.68 0-60.331l268.501-268.501-268.501-268.501c-16.661-16.661-16.661-43.68 0-60.331 8.331-8.331 19.253-12.501 30.165-12.501s21.845 4.171 30.176 12.501l268.491 268.491 268.501-268.491c8.331-8.331 19.253-12.501 30.165-12.501s21.845 4.171 30.165 12.501c16.661 16.661 16.661 43.68 0 60.331l-268.491 268.501z" />
<glyph unicode="&#xe96f;" glyph-name="delete" d="M896 832h-554.667l-341.333-384 341.333-384h554.667c70.688 0 128 57.312 128 128v512c0 70.688-57.312 128-128 128zM938.667 192c0-23.531-19.136-42.667-42.667-42.667h-516.341l-265.483 298.667 265.483 298.667h516.341c23.531 0 42.667-19.136 42.667-42.667v-512zM798.165 350.165c16.661-16.661 16.661-43.68 0-60.331-8.331-8.331-19.253-12.501-30.165-12.501s-21.835 4.171-30.165 12.501l-97.835 97.824-97.835-97.824c-8.331-8.331-19.253-12.501-30.165-12.501s-21.835 4.171-30.165 12.501c-16.661 16.661-16.661 43.68 0 60.331l97.824 97.835-97.824 97.835c-16.661 16.661-16.661 43.68 0 60.331 16.661 16.661 43.68 16.661 60.331 0l97.835-97.824 97.835 97.824c16.661 16.661 43.68 16.661 60.331 0 16.661-16.661 16.661-43.68 0-60.331l-97.824-97.835 97.824-97.835z" />
<glyph unicode="&#xe970;" glyph-name="expand" d="M853.333 917.333h-128c-23.563 0-42.667-19.104-42.667-42.667s19.104-42.667 42.667-42.667h128c23.573 0 42.667-19.104 42.667-42.667v-128c0-23.563 19.104-42.667 42.667-42.667s42.667 19.104 42.667 42.667v128c0 70.688-57.312 128-128 128zM298.667 917.333h-128c-70.688 0-128-57.312-128-128v-128c0-23.563 19.104-42.667 42.667-42.667s42.667 19.104 42.667 42.667v128c0 23.563 19.104 42.667 42.667 42.667h128c23.563 0 42.667 19.104 42.667 42.656 0 23.573-19.104 42.677-42.667 42.677zM938.667 277.333c-23.563 0-42.667-19.104-42.667-42.667v-128c0-23.573-19.093-42.667-42.667-42.667h-128c-23.563 0-42.667-19.104-42.667-42.667s19.104-42.667 42.667-42.667h128c70.688 0 128 57.312 128 128v128c0 23.563-19.104 42.667-42.667 42.667zM298.667 64h-128c-23.563 0-42.667 19.093-42.667 42.667v128c0 23.563-19.104 42.667-42.656 42.667-23.573 0-42.667-19.104-42.667-42.667v-128c0-70.688 57.312-128 128-128h128c23.563 0 42.667 19.104 42.667 42.667s-19.115 42.667-42.677 42.667z" />
<glyph unicode="&#xe971;" glyph-name="loader" d="M298.667 448c0 23.552-19.104 42.667-42.667 42.667h-170.667c-23.573 0-42.667-19.115-42.667-42.667 0-23.563 19.104-42.667 42.667-42.667h170.667c23.563 0 42.667 19.104 42.667 42.667zM938.667 490.667h-170.667c-23.563 0-42.667-19.115-42.667-42.667 0-23.563 19.104-42.667 42.667-42.667h170.667c23.563 0 42.667 19.104 42.667 42.667 0 23.552-19.104 42.667-42.667 42.667zM512 917.333c-23.552 0-42.667-19.104-42.667-42.667v-170.667c0-23.552 19.115-42.667 42.667-42.667 23.563 0 42.667 19.115 42.667 42.667v170.667c0 23.563-19.104 42.667-42.667 42.667zM512 234.667c-23.552 0-42.667-19.104-42.667-42.667v-170.667c0-23.563 19.115-42.667 42.667-42.667 23.563 0 42.667 19.104 42.667 42.667v170.667c0 23.563-19.104 42.667-42.667 42.667zM300.8 297.141l-120.651-120.661c-16.661-16.661-16.661-43.691 0-60.352 16.651-16.661 43.669-16.661 60.331 0l120.672 120.683c16.661 16.651 16.661 43.669 0 60.331s-43.68 16.672-60.352 0zM723.2 598.848l120.661 120.661c16.661 16.661 16.661 43.68 0 60.341-16.651 16.661-43.669 16.661-60.309 0l-120.693-120.661c-16.661-16.661-16.661-43.68 0-60.341s43.659-16.661 60.341 0zM240.469 779.872c-16.651 16.661-43.669 16.661-60.331 0s-16.661-43.68 0-60.341l120.661-120.683c16.661-16.661 43.691-16.661 60.352 0s16.661 43.68 0 60.341l-120.683 120.683zM723.2 297.141c-16.661 16.661-43.691 16.661-60.341 0-16.661-16.661-16.661-43.669 0-60.331l120.672-120.683c16.661-16.661 43.669-16.661 60.32 0s16.651 43.691 0 60.352l-120.651 120.661z" />
<glyph unicode="&#xe972;" glyph-name="mute" d="M170.667 618.667c-70.72 0-128-59.061-128-129.781v-83.552c0-70.72 57.28-128 128-128h85.333l213.333-213.333v768l-213.333-213.333h-85.333zM316.331 558.325l67.659 69.333 0.011 1.675v-359.339l-92.672 92.672h-120.661c-23.531 0-42.667 19.136-42.667 42.667v83.552c0 24.096 19.541 44.448 42.667 44.448h120.661l25.003 24.992zM926.165 350.165c16.661-16.661 16.661-43.68 0-60.331-8.331-8.331-19.253-12.501-30.165-12.501s-21.835 4.171-30.165 12.501l-97.835 97.824-97.835-97.824c-8.331-8.331-19.253-12.501-30.165-12.501s-21.835 4.171-30.165 12.501c-16.661 16.661-16.661 43.68 0 60.331l97.824 97.835-97.824 97.835c-16.661 16.661-16.661 43.68 0 60.331 16.661 16.661 43.68 16.661 60.331 0l97.835-97.824 97.835 97.824c16.661 16.661 43.68 16.661 60.331 0 16.661-16.661 16.661-43.68 0-60.331l-97.824-97.835 97.824-97.835z" />
<glyph unicode="&#xe973;" glyph-name="pie-graph" d="M512 917.333c-259.2 0-469.333-210.133-469.333-469.333 0-259.211 210.133-469.333 469.333-469.333 259.211 0 469.333 210.123 469.333 469.333 0 259.2-210.123 469.333-469.333 469.333zM893.579 490.667h-338.912v338.901c177.984-19.669 319.232-160.928 338.912-338.901zM512 64c-212.075 0-384 171.925-384 384 0 197.653 149.344 360.352 341.333 381.568v-424.235h424.256c-21.237-191.979-183.947-341.333-381.589-341.333z" />
<glyph unicode="&#xe974;" glyph-name="location-2" d="M512 917.333c-259.2 0-469.333-210.133-469.333-469.333 0-259.211 210.133-469.333 469.333-469.333 259.211 0 469.333 210.123 469.333 469.333 0 259.2-210.123 469.333-469.333 469.333zM554.667 66.421v125.579c0 23.563-19.104 42.667-42.667 42.667-23.552 0-42.667-19.104-42.667-42.667v-125.579c-177.973 19.68-319.232 160.928-338.901 338.912h125.568c23.563 0 42.667 19.104 42.667 42.667 0 23.552-19.104 42.667-42.667 42.667h-125.568c19.669 177.973 160.928 319.232 338.901 338.901v-125.568c0-23.552 19.115-42.667 42.667-42.667 23.563 0 42.667 19.115 42.667 42.667v125.568c177.984-19.669 319.232-160.928 338.912-338.901h-125.579c-23.563 0-42.667-19.115-42.667-42.667 0-23.563 19.104-42.667 42.667-42.667h125.579c-19.68-177.984-160.928-319.232-338.912-338.912z" />
<glyph unicode="&#xe975;" glyph-name="speech-bubble" d="M853.333 832c23.531 0 42.667-19.136 42.667-42.667v-469.333c0-23.52-19.136-42.656-42.667-42.656h-368.672l-185.995-132.853v132.853h-128c-23.541 0-42.667 19.136-42.667 42.656v469.333c0 23.541 19.136 42.667 42.667 42.667h682.667zM853.333 917.333h-682.667c-70.688 0-128-57.312-128-128v-469.333c0-70.688 57.312-128 128-128h42.667v-213.333l298.667 213.333h341.333c70.688 0 128 57.312 128 128v469.333c0 70.688-57.312 128-128 128v0z" />
<glyph unicode="&#xe976;" glyph-name="square-check" d="M853.333 917.333h-682.667c-70.72 0-128-57.28-128-128v-682.667c0-70.72 57.28-128 128-128h682.667c70.72 0 128 57.28 128 128v682.667c0 70.72-57.28 128-128 128zM896 106.667c0-23.573-19.093-42.667-42.667-42.667h-682.667c-23.563 0-42.667 19.093-42.667 42.667v682.667c0 23.563 19.104 42.667 42.667 42.667h682.667c23.573 0 42.667-19.104 42.667-42.667v-682.667zM652.501 583.776l-181.024-181.035-90.507 90.507c-16.661 16.661-43.68 16.661-60.341 0s-16.661-43.68 0-60.331l120.651-120.672c16.672-16.661 43.691-16.661 60.352 0l211.189 211.189c16.672 16.64 16.672 43.659 0.021 60.331-16.661 16.672-43.68 16.672-60.341 0.011z" />
<glyph unicode="&#xe977;" glyph-name="inbox" d="M268.501 460.491c-16.661 16.661-16.661 43.68 0 60.341s43.68 16.661 60.341 0l140.491-140.501v494.336c0 23.552 19.115 42.667 42.667 42.667 23.563 0 42.667-19.115 42.667-42.667v-494.325l140.501 140.491c16.661 16.661 43.68 16.661 60.331 0 16.661-16.661 16.661-43.68 0-60.341l-213.333-213.333c-8.331-8.32-19.253-12.501-30.165-12.501-10.923 0-21.835 4.181-30.176 12.501l-213.323 213.333zM938.667 319.989c-23.563 0-42.667-19.104-42.667-42.656v-170.677c0-23.52-18.635-42.656-41.547-42.656h-683.787c-23.52 0-42.667 19.136-42.667 42.656v170.677c0 23.552-19.104 42.656-42.656 42.656-23.573 0-42.667-19.104-42.667-42.656v-170.677c0-17.259 3.392-34.016 10.069-49.835 6.443-15.253 15.669-28.928 27.413-40.672 11.744-11.733 25.429-20.96 40.672-27.403 15.808-6.709 32.565-10.080 49.835-10.080h683.787c17.173 0 33.856 3.413 49.579 10.155 15.125 6.475 28.693 15.744 40.32 27.531 11.605 11.744 20.693 25.429 27.051 40.661 6.581 15.755 9.92 32.459 9.92 49.643v170.677c0.011 23.552-19.093 42.656-42.656 42.656z" />
<glyph unicode="&#xe978;" glyph-name="circle-check" d="M512 917.333c-259.2 0-469.333-210.123-469.333-469.333s210.133-469.333 469.333-469.333 469.333 210.123 469.333 469.333-210.133 469.333-469.333 469.333zM512 64c-212.075 0-384 171.925-384 384s171.925 384 384 384 384-171.925 384-384-171.925-384-384-384zM625.355 563.52l-150.859-150.848-60.331 60.331c-16.661 16.661-43.669 16.661-60.341 0-16.661-16.661-16.661-43.68 0-60.352l90.496-90.464c16.661-16.661 43.691-16.661 60.341 0l181.024 181.013c16.661 16.661 16.683 43.669 0.011 60.341-16.651 16.629-43.68 16.629-60.341-0.021z" />
<glyph unicode="&#xe979;" glyph-name="rewind" d="M512 106.667c-10.923 0-21.835 4.171-30.176 12.501l-298.667 298.667c-16.661 16.661-16.661 43.669 0 60.331l298.667 298.667c16.661 16.661 43.68 16.661 60.341 0s16.661-43.68 0-60.341l-268.491-268.491 268.491-268.501c16.661-16.661 16.661-43.68 0-60.331-8.32-8.331-19.253-12.501-30.165-12.501zM798.165 119.168c16.661 16.661 16.661 43.669 0 60.331l-268.491 268.501 268.491 268.491c16.661 16.661 16.661 43.68 0 60.341s-43.68 16.661-60.331 0l-298.667-298.667c-16.661-16.661-16.661-43.68 0-60.331l298.667-298.667c8.331-8.331 19.253-12.501 30.165-12.501s21.835 4.171 30.165 12.501z" />
<glyph unicode="&#xe97a;" glyph-name="fast-forward" d="M439.157 119.157c-16.661 16.661-16.661 43.68 0 60.341l268.501 268.501-268.501 268.491c-16.661 16.661-16.661 43.68 0 60.341s43.68 16.661 60.341 0l298.667-298.667c16.661-16.661 16.661-43.68 0-60.352l-298.667-298.667c-8.331-8.32-19.253-12.48-30.165-12.48s-21.845 4.16-30.176 12.491zM213.333 106.667c10.912 0 21.835 4.16 30.165 12.491l298.667 298.667c16.661 16.661 16.661 43.68 0 60.352l-298.667 298.667c-16.661 16.661-43.68 16.661-60.341 0s-16.661-43.68 0-60.341l268.501-268.501-268.491-268.501c-16.661-16.661-16.661-43.68 0-60.341 8.32-8.331 19.253-12.491 30.165-12.491z" />
<glyph unicode="&#xe97b;" glyph-name="command" d="M768 362.667v0h-85.333v170.667h85.333c94.251 0 170.667 76.416 170.667 170.667s-76.416 170.667-170.667 170.667c-94.261 0-170.667-76.416-170.667-170.667v-85.333h-170.667v85.333c0 94.251-76.416 170.667-170.667 170.667s-170.667-76.416-170.667-170.667 76.416-170.667 170.667-170.667h85.333v-170.667h-85.333c-94.251 0-170.667-76.416-170.667-170.667s76.416-170.667 170.667-170.667c94.261 0 170.667 76.416 170.667 170.667v0 85.333h170.667v-85.12c0-0.085-0.011-0.149-0.011-0.213 0-94.251 76.416-170.667 170.667-170.667s170.667 76.416 170.667 170.667-76.405 170.645-170.656 170.667zM768 789.333c47.125 0 85.333-38.208 85.333-85.333s-38.208-85.333-85.333-85.333h-85.333v85.333c0 47.125 38.208 85.333 85.333 85.333zM170.667 704c0 47.125 38.208 85.333 85.333 85.333s85.333-38.208 85.333-85.333v-85.333h-85.333c-47.125 0-85.333 38.219-85.333 85.333zM256 106.667c-47.125 0-85.333 38.208-85.333 85.333s38.208 85.333 85.333 85.333v0h85.333v-85.333c0-47.125-38.208-85.333-85.333-85.333zM426.667 362.667v170.667h170.667v-170.667h-170.667zM768 106.667c-47.125 0-85.333 38.208-85.333 85.333v0 85.333h85.323c47.125 0 85.333-38.208 85.333-85.333s-38.197-85.333-85.323-85.333z" />
<glyph unicode="&#xe97c;" glyph-name="menu" d="M128 661.333h768c23.563 0 42.667 19.104 42.667 42.667s-19.104 42.667-42.667 42.667h-768c-23.563 0-42.667-19.104-42.667-42.667s19.104-42.667 42.667-42.667zM896 490.667h-768c-23.563 0-42.667-19.104-42.667-42.667s19.104-42.667 42.667-42.667h768c23.563 0 42.667 19.104 42.667 42.667s-19.104 42.667-42.667 42.667zM896 234.667h-768c-23.563 0-42.667-19.104-42.667-42.667s19.104-42.667 42.667-42.667h768c23.563 0 42.667 19.104 42.667 42.667s-19.104 42.667-42.667 42.667z" />
<glyph unicode="&#xe97d;" glyph-name="minus" d="M896 490.667h-768c-23.563 0-42.667-19.104-42.667-42.667s19.104-42.667 42.667-42.667h768c23.563 0 42.667 19.104 42.667 42.667s-19.104 42.667-42.667 42.667z" />
<glyph unicode="&#xe97e;" glyph-name="file-subtract" d="M682.667 320c0-23.563-19.104-42.667-42.667-42.667h-256c-23.563 0-42.667 19.104-42.667 42.667s19.104 42.667 42.667 42.667h256c23.563 0 42.667-19.104 42.667-42.667zM938.667 661.333v-597.333c0-70.699-57.301-128-128-128h-597.333c-70.699 0-128 57.301-128 128v768c0 70.699 57.301 128 128 128h426.667l298.667-298.667zM640 661.333h177.995l-177.995 177.995v-177.995zM853.333 64v512h-298.667v298.667h-341.333c-15.371 0-25.504-7.829-30.165-12.501s-12.501-14.795-12.501-30.165v-768c0-15.371 7.829-25.504 12.501-30.165s14.795-12.501 30.165-12.501h597.333c15.371 0 25.504 7.829 30.165 12.501s12.501 14.795 12.501 30.165z" />
<glyph unicode="&#xe97f;" glyph-name="check" d="M384 149.333c-11.317 0-22.165 4.491-30.165 12.491l-256 256.011c-16.661 16.661-16.661 43.669 0 60.331s43.68 16.661 60.331 0l225.835-225.835 481.835 481.835c16.661 16.661 43.68 16.661 60.331 0 16.661-16.661 16.661-43.68 0-60.341l-512-512c-8-8-18.848-12.491-30.165-12.491z" />
</font>
</defs>
</svg>
